M48
; DRILL file {KiCad 9.0.3} date 2026-09-13T01:04:44+0900
; FORMAT={-:-/ absolute / inch / decimal}
; #@! TF.CreationDate,2026-09-13T01:04:44+09:00
; #@! TF.GenerationSoftware,Kicad,Pcbnew,9.0.3
; #@! TF.FileFunction,Plated,1,2,PTH
FMAT,2
INCH
; #@! TA.AperFunction,Plated,PTH,ViaDrill
T1C0.0118
; #@! TA.AperFunction,Plated,PTH,ComponentDrill
T2C0.0374
; #@! TA.AperFunction,Plated,PTH,ComponentDrill
T3C0.0394
; #@! TA.AperFunction,Plated,PTH,ComponentDrill
T4C0.1299
%
G90
G05
T1
X0.025Y-0.2981
X0.035Y-1.49
X0.04Y-0.34
X0.04Y-1.64
X0.0591Y-0.0394
X0.06Y-1.96
X0.065Y-0.415
X0.065Y-0.525
X0.14Y-1.78
X0.15Y-1.7104
X0.16Y-1.96
X0.175Y-0.3948
X0.175Y-0.635
X0.1976Y-0.4174
X0.2Y-1.21
X0.205Y-1.28
X0.21Y-0.96
X0.22Y-0.285
X0.235Y-1.055
X0.2362Y-0.0217
X0.24Y-0.42
X0.26Y-0.335
X0.26Y-1.62
X0.27Y-0.42
X0.275Y-0.535
X0.2975Y-1.245
X0.2976Y-1.7104
X0.3Y-1.96
X0.3244Y-1.2044
X0.34Y-1.62
X0.3631Y-1.0048
X0.365Y-0.8174
X0.365Y-1.1924
X0.3752Y-0.42
X0.4Y-1.8
X0.405Y-0.79
X0.4076Y-0.4524
X0.415Y-1.465
X0.42Y-1.96
X0.4301Y-0.4749
X0.4325Y-1.4
X0.435Y-0.3645
X0.44Y-1.315
X0.45Y-0.49
X0.4569Y-0.5624
X0.4688Y-1.1978
X0.47Y-0.0376
X0.475Y-0.49
X0.4975Y-1.4
X0.5031Y-0.3645
X0.54Y-1.96
X0.56Y-1.78
X0.565Y-1.7107
X0.5709Y-0.5906
X0.575Y-1.39
X0.59Y-0.49
X0.59Y-0.755
X0.59Y-0.87
X0.615Y-1.0246
X0.64Y-1.96
X0.645Y-0.8
X0.705Y-1.14
X0.7116Y-1.7107
X0.7181Y-0.312
X0.7188Y-0.675
X0.72Y-1.5
X0.7281Y-0.3645
X0.74Y-1.96
X0.745Y-0.92
X0.75Y-0.81
X0.755Y-0.0376
X0.755Y-1.27
X0.7675Y-1.4
X0.7881Y-0.3645
X0.82Y-1.8
X0.8325Y-1.4
X0.838Y-0.575
X0.84Y-1.96
X0.851Y-0.367
X0.875Y-1.265
X0.88Y-0.82
X0.88Y-1.5
X0.89Y-0.76
X0.893Y-0.57
X0.9188Y-1.325
X0.92Y-1.14
X0.92Y-1.56
X0.96Y-1.96
X0.975Y-0.41
X0.975Y-0.585
X0.98Y-1.5
X0.98Y-1.78
X0.985Y-1.7107
X1.0Y-0.82
X1.015Y-1.14
X1.0188Y-0.675
X1.025Y-0.355
X1.03Y-1.29
X1.035Y-1.325
X1.06Y-0.86
X1.0616Y-1.4
X1.08Y-1.96
X1.1265Y-1.4
X1.134Y-1.7107
X1.135Y-0.39
X1.1775Y-0.285
X1.18Y-0.05
X1.1811Y-0.1772
X1.192Y-0.752
X1.2Y-1.122
X1.2Y-1.422
X1.2Y-1.8
X1.2Y-1.96
X1.2008Y-0.0984
X1.202Y-0.868
X1.202Y-1.238
X1.204Y-1.308
X1.21Y-0.385
T2
X0.1147Y-1.8807
X0.12Y-1.1481
X0.12Y-1.2466
X0.12Y-1.345
X0.2131Y-1.8807
X0.3116Y-1.8807
X0.5236Y-1.88
X0.622Y-1.88
X0.7204Y-1.88
X0.9356Y-1.8813
X1.034Y-1.8813
X1.1324Y-1.8813
T3
X0.12Y-0.8316
X0.12Y-0.93
X0.1258Y-0.1043
X0.2242Y-0.1043
X0.3941Y-1.57
X0.4926Y-1.57
X0.7141Y-1.57
X0.8126Y-1.57
X1.0326Y-1.57
X1.0335Y-0.0993
X1.131Y-1.57
X1.1319Y-0.0993
T4
X0.1342Y-1.5718
X1.1184Y-0.4891
M30
