%TF.GenerationSoftware,KiCad,Pcbnew,9.0.3*%
%TF.CreationDate,2026-09-13T01:04:44+09:00*%
%TF.ProjectId,4E___,34456416-da2e-46b6-9963-61645f706362,rev?*%
%TF.SameCoordinates,Original*%
%TF.FileFunction,Soldermask,Top*%
%TF.FilePolarity,Negative*%
%FSLAX46Y46*%
G04 Gerber Fmt 4.6, Leading zero omitted, Abs format (unit mm)*
G04 Created by KiCad (PCBNEW 9.0.3) date 2026-09-13 01:04:44*
%MOMM*%
%LPD*%
G01*
G04 APERTURE LIST*
G04 Aperture macros list*
%AMRoundRect*
0 Rectangle with rounded corners*
0 $1 Rounding radius*
0 $2 $3 $4 $5 $6 $7 $8 $9 X,Y pos of 4 corners*
0 Add a 4 corners polygon primitive as box body*
4,1,4,$2,$3,$4,$5,$6,$7,$8,$9,$2,$3,0*
0 Add four circle primitives for the rounded corners*
1,1,$1+$1,$2,$3*
1,1,$1+$1,$4,$5*
1,1,$1+$1,$6,$7*
1,1,$1+$1,$8,$9*
0 Add four rect primitives between the rounded corners*
20,1,$1+$1,$2,$3,$4,$5,0*
20,1,$1+$1,$4,$5,$6,$7,0*
20,1,$1+$1,$6,$7,$8,$9,0*
20,1,$1+$1,$8,$9,$2,$3,0*%
%AMFreePoly0*
4,1,15,-0.616000,0.142500,-0.283500,0.475000,0.521000,0.475000,0.557355,0.467769,0.588175,0.447175,0.608769,0.416355,0.616000,0.380000,0.616000,-0.380000,0.608769,-0.416355,0.588175,-0.447175,0.557355,-0.467769,0.521000,-0.475000,-0.283500,-0.475000,-0.616000,-0.142500,-0.616000,0.142500,-0.616000,0.142500,$1*%
G04 Aperture macros list end*
%ADD10C,3.300000*%
%ADD11RoundRect,0.150000X0.587500X0.150000X-0.587500X0.150000X-0.587500X-0.150000X0.587500X-0.150000X0*%
%ADD12RoundRect,0.200000X-0.200000X-0.275000X0.200000X-0.275000X0.200000X0.275000X-0.200000X0.275000X0*%
%ADD13RoundRect,0.200000X0.200000X0.275000X-0.200000X0.275000X-0.200000X-0.275000X0.200000X-0.275000X0*%
%ADD14RoundRect,0.250000X0.725000X-0.600000X0.725000X0.600000X-0.725000X0.600000X-0.725000X-0.600000X0*%
%ADD15O,1.950000X1.700000*%
%ADD16RoundRect,0.200000X-0.275000X0.200000X-0.275000X-0.200000X0.275000X-0.200000X0.275000X0.200000X0*%
%ADD17R,0.800000X0.800000*%
%ADD18R,2.000000X1.100000*%
%ADD19RoundRect,0.250000X-1.000000X1.750000X-1.000000X-1.750000X1.000000X-1.750000X1.000000X1.750000X0*%
%ADD20RoundRect,0.250000X-0.250000X-0.475000X0.250000X-0.475000X0.250000X0.475000X-0.250000X0.475000X0*%
%ADD21O,1.700000X2.000000*%
%ADD22RoundRect,0.250000X-0.600000X-0.750000X0.600000X-0.750000X0.600000X0.750000X-0.600000X0.750000X0*%
%ADD23RoundRect,0.218750X-0.218750X-0.256250X0.218750X-0.256250X0.218750X0.256250X-0.218750X0.256250X0*%
%ADD24RoundRect,0.225000X0.250000X-0.225000X0.250000X0.225000X-0.250000X0.225000X-0.250000X-0.225000X0*%
%ADD25RoundRect,0.250000X0.262500X0.450000X-0.262500X0.450000X-0.262500X-0.450000X0.262500X-0.450000X0*%
%ADD26R,0.939800X1.219200*%
%ADD27R,5.511800X6.273800*%
%ADD28RoundRect,0.200000X0.275000X-0.200000X0.275000X0.200000X-0.275000X0.200000X-0.275000X-0.200000X0*%
%ADD29RoundRect,0.250000X-0.475000X0.250000X-0.475000X-0.250000X0.475000X-0.250000X0.475000X0.250000X0*%
%ADD30O,2.000000X1.700000*%
%ADD31RoundRect,0.250000X0.750000X-0.600000X0.750000X0.600000X-0.750000X0.600000X-0.750000X-0.600000X0*%
%ADD32RoundRect,0.095000X0.380000X-0.921000X0.380000X0.921000X-0.380000X0.921000X-0.380000X-0.921000X0*%
%ADD33RoundRect,0.095000X-0.380000X0.921000X-0.380000X-0.921000X0.380000X-0.921000X0.380000X0.921000X0*%
%ADD34FreePoly0,90.000000*%
%ADD35FreePoly0,270.000000*%
%ADD36C,1.700000*%
%ADD37RoundRect,0.110000X1.140000X0.440000X-1.140000X0.440000X-1.140000X-0.440000X1.140000X-0.440000X0*%
%ADD38RoundRect,0.250000X-1.000000X1.150000X-1.000000X-1.150000X1.000000X-1.150000X1.000000X1.150000X0*%
%ADD39RoundRect,0.250000X0.600000X0.725000X-0.600000X0.725000X-0.600000X-0.725000X0.600000X-0.725000X0*%
%ADD40O,1.700000X1.950000*%
%ADD41RoundRect,0.225000X0.225000X0.250000X-0.225000X0.250000X-0.225000X-0.250000X0.225000X-0.250000X0*%
%ADD42RoundRect,0.250000X0.600000X0.750000X-0.600000X0.750000X-0.600000X-0.750000X0.600000X-0.750000X0*%
G04 APERTURE END LIST*
D10*
%TO.C,*%
X3408000Y-39924000D03*
%TD*%
D11*
%TO.C,Q1*%
X7396000Y-21712250D03*
X9271000Y-20762250D03*
X9271000Y-22662250D03*
%TD*%
D12*
%TO.C,R9*%
X9219500Y-24125250D03*
X7569500Y-24125250D03*
%TD*%
D13*
%TO.C,R8*%
X7508500Y-19426250D03*
X9158500Y-19426250D03*
%TD*%
%TO.C,R7*%
X7571500Y-25522250D03*
X9221500Y-25522250D03*
%TD*%
D10*
%TO.C,*%
X28408000Y-12424000D03*
%TD*%
D14*
%TO.C,J7*%
X3048000Y-34163000D03*
D15*
X3048000Y-31663000D03*
X3048000Y-29163000D03*
%TD*%
D16*
%TO.C,R11*%
X24765000Y-12064500D03*
X24765000Y-10414500D03*
%TD*%
D17*
%TO.C,D2*%
X26291500Y-7112000D03*
D18*
X24391500Y-7112000D03*
%TD*%
D19*
%TO.C,C10*%
X4500000Y-16131000D03*
X4500000Y-10031000D03*
%TD*%
D20*
%TO.C,C7*%
X26096000Y-8890000D03*
X24196000Y-8890000D03*
%TD*%
D21*
%TO.C,J2*%
X5695000Y-2650000D03*
D22*
X3195000Y-2650000D03*
%TD*%
D12*
%TO.C,R20*%
X5542750Y-7112000D03*
X3892750Y-7112000D03*
%TD*%
D11*
%TO.C,Q4*%
X9730500Y-13335000D03*
X11605500Y-12385000D03*
X11605500Y-14285000D03*
%TD*%
D23*
%TO.C,D3*%
X2711250Y-7112000D03*
X1136250Y-7112000D03*
%TD*%
D24*
%TO.C,C5*%
X12779561Y-9258000D03*
X12779561Y-10808000D03*
%TD*%
D17*
%TO.C,D1*%
X19055000Y-12573000D03*
D18*
X20955000Y-12573000D03*
%TD*%
D25*
%TO.C,R15*%
X16053750Y-14605000D03*
X17878750Y-14605000D03*
%TD*%
D21*
%TO.C,J6*%
X28750000Y-2523000D03*
D22*
X26250000Y-2523000D03*
%TD*%
D26*
%TO.C,U3*%
X14297562Y-10668000D03*
D27*
X12017561Y-3467100D03*
D26*
X9737560Y-10668000D03*
%TD*%
D25*
%TO.C,R16*%
X19459250Y-14605000D03*
X21284250Y-14605000D03*
%TD*%
D11*
%TO.C,Q2*%
X27891500Y-7747000D03*
X29766500Y-6797000D03*
X29766500Y-8697000D03*
%TD*%
D28*
%TO.C,R10*%
X24765000Y-13208000D03*
X24765000Y-14858000D03*
%TD*%
D29*
%TO.C,C8*%
X23114000Y-14412000D03*
X23114000Y-12512000D03*
%TD*%
D24*
%TO.C,C6*%
X20018561Y-9258000D03*
X20018561Y-10808000D03*
%TD*%
D26*
%TO.C,U2*%
X21536562Y-10668000D03*
D27*
X19256561Y-3467100D03*
D26*
X16976560Y-10668000D03*
%TD*%
D24*
%TO.C,C9*%
X18494561Y-9258000D03*
X18494561Y-10808000D03*
%TD*%
%TO.C,C4*%
X11255561Y-9258000D03*
X11255561Y-10808000D03*
%TD*%
D30*
%TO.C,J5*%
X3048000Y-21122000D03*
D31*
X3048000Y-23622000D03*
%TD*%
D32*
%TO.C,U1*%
X28418000Y-17145000D03*
X25878000Y-17145000D03*
X23338000Y-17145000D03*
X20798000Y-17145000D03*
X18258000Y-17145000D03*
X15718000Y-17145000D03*
X13178000Y-17145000D03*
D33*
X13178000Y-33655000D03*
X15718000Y-33655000D03*
X18258000Y-33655000D03*
X20798000Y-33655000D03*
X23338000Y-33655000D03*
X25878000Y-33655000D03*
X28418000Y-33655000D03*
D34*
X27148000Y-16745000D03*
X24608000Y-16745000D03*
X22068000Y-16745000D03*
X19528000Y-16745000D03*
X16988000Y-16745000D03*
X14448000Y-16745000D03*
D35*
X14448000Y-34055000D03*
X16988000Y-34055000D03*
X19528000Y-34055000D03*
D36*
X29434000Y-24130000D03*
X29434000Y-26670000D03*
X26894000Y-24130000D03*
X26894000Y-26670000D03*
X24354000Y-24130000D03*
X24354000Y-26670000D03*
X21814000Y-24130000D03*
X21814000Y-26670000D03*
D37*
X15280177Y-24406012D03*
X15280177Y-26406012D03*
D38*
X18923000Y-26525000D03*
%TD*%
D13*
%TO.C,R12*%
X9207000Y-31750000D03*
X7557000Y-31750000D03*
%TD*%
D12*
%TO.C,R3*%
X12106000Y-43451000D03*
X13756000Y-43451000D03*
%TD*%
D39*
%TO.C,J3*%
X18298800Y-47752000D03*
D40*
X15798800Y-47752000D03*
X13298800Y-47752000D03*
%TD*%
D39*
%TO.C,J4*%
X28763600Y-47786000D03*
D40*
X26263600Y-47786000D03*
X23763600Y-47786000D03*
%TD*%
D12*
%TO.C,R4*%
X15026000Y-43451000D03*
X16676000Y-43451000D03*
%TD*%
D41*
%TO.C,C1*%
X9110000Y-43445000D03*
X7560000Y-43445000D03*
%TD*%
D39*
%TO.C,J1*%
X7914000Y-47769000D03*
D40*
X5414000Y-47769000D03*
X2914000Y-47769000D03*
%TD*%
D12*
%TO.C,R6*%
X25758000Y-43451000D03*
X27408000Y-43451000D03*
%TD*%
%TO.C,R14*%
X7557000Y-27051000D03*
X9207000Y-27051000D03*
%TD*%
D11*
%TO.C,Q3*%
X9319500Y-30287000D03*
X9319500Y-28387000D03*
X7444500Y-29337000D03*
%TD*%
D42*
%TO.C,J9*%
X20639400Y-39878000D03*
D21*
X18139400Y-39878000D03*
%TD*%
D12*
%TO.C,R13*%
X7557000Y-33274000D03*
X9207000Y-33274000D03*
%TD*%
D13*
%TO.C,R19*%
X12636000Y-35560000D03*
X10986000Y-35560000D03*
%TD*%
%TO.C,R17*%
X28614000Y-35560000D03*
X26964000Y-35560000D03*
%TD*%
D12*
%TO.C,R5*%
X22747600Y-43451000D03*
X24397600Y-43451000D03*
%TD*%
D42*
%TO.C,J10*%
X12511400Y-39878000D03*
D21*
X10011400Y-39878000D03*
%TD*%
D12*
%TO.C,R1*%
X1541000Y-43445000D03*
X3191000Y-43445000D03*
%TD*%
D42*
%TO.C,J8*%
X28727400Y-39878000D03*
D21*
X26227400Y-39878000D03*
%TD*%
D12*
%TO.C,R2*%
X4526000Y-43445000D03*
X6176000Y-43445000D03*
%TD*%
D41*
%TO.C,C3*%
X30352800Y-43451000D03*
X28802800Y-43451000D03*
%TD*%
%TO.C,C2*%
X19624000Y-43451000D03*
X18074000Y-43451000D03*
%TD*%
D13*
%TO.C,R18*%
X21145000Y-35560000D03*
X19495000Y-35560000D03*
%TD*%
M02*
