%TF.GenerationSoftware,KiCad,Pcbnew,9.0.3*%
%TF.CreationDate,2026-09-13T01:04:44+09:00*%
%TF.ProjectId,4E___,34456416-da2e-46b6-9963-61645f706362,rev?*%
%TF.SameCoordinates,Original*%
%TF.FileFunction,Legend,Top*%
%TF.FilePolarity,Positive*%
%FSLAX46Y46*%
G04 Gerber Fmt 4.6, Leading zero omitted, Abs format (unit mm)*
G04 Created by KiCad (PCBNEW 9.0.3) date 2026-09-13 01:04:44*
%MOMM*%
%LPD*%
G01*
G04 APERTURE LIST*
G04 Aperture macros list*
%AMRoundRect*
0 Rectangle with rounded corners*
0 $1 Rounding radius*
0 $2 $3 $4 $5 $6 $7 $8 $9 X,Y pos of 4 corners*
0 Add a 4 corners polygon primitive as box body*
4,1,4,$2,$3,$4,$5,$6,$7,$8,$9,$2,$3,0*
0 Add four circle primitives for the rounded corners*
1,1,$1+$1,$2,$3*
1,1,$1+$1,$4,$5*
1,1,$1+$1,$6,$7*
1,1,$1+$1,$8,$9*
0 Add four rect primitives between the rounded corners*
20,1,$1+$1,$2,$3,$4,$5,0*
20,1,$1+$1,$4,$5,$6,$7,0*
20,1,$1+$1,$6,$7,$8,$9,0*
20,1,$1+$1,$8,$9,$2,$3,0*%
%AMFreePoly0*
4,1,15,-0.616000,0.142500,-0.283500,0.475000,0.521000,0.475000,0.557355,0.467769,0.588175,0.447175,0.608769,0.416355,0.616000,0.380000,0.616000,-0.380000,0.608769,-0.416355,0.588175,-0.447175,0.557355,-0.467769,0.521000,-0.475000,-0.283500,-0.475000,-0.616000,-0.142500,-0.616000,0.142500,-0.616000,0.142500,$1*%
G04 Aperture macros list end*
%ADD10C,0.125000*%
%ADD11C,0.150000*%
%ADD12C,0.120000*%
%ADD13C,0.152400*%
%ADD14C,0.100000*%
%ADD15C,0.127000*%
%ADD16C,0.504000*%
%ADD17C,3.300000*%
%ADD18RoundRect,0.150000X0.587500X0.150000X-0.587500X0.150000X-0.587500X-0.150000X0.587500X-0.150000X0*%
%ADD19RoundRect,0.200000X-0.200000X-0.275000X0.200000X-0.275000X0.200000X0.275000X-0.200000X0.275000X0*%
%ADD20RoundRect,0.200000X0.200000X0.275000X-0.200000X0.275000X-0.200000X-0.275000X0.200000X-0.275000X0*%
%ADD21RoundRect,0.250000X0.725000X-0.600000X0.725000X0.600000X-0.725000X0.600000X-0.725000X-0.600000X0*%
%ADD22O,1.950000X1.700000*%
%ADD23RoundRect,0.200000X-0.275000X0.200000X-0.275000X-0.200000X0.275000X-0.200000X0.275000X0.200000X0*%
%ADD24R,0.800000X0.800000*%
%ADD25R,2.000000X1.100000*%
%ADD26RoundRect,0.250000X-1.000000X1.750000X-1.000000X-1.750000X1.000000X-1.750000X1.000000X1.750000X0*%
%ADD27RoundRect,0.250000X-0.250000X-0.475000X0.250000X-0.475000X0.250000X0.475000X-0.250000X0.475000X0*%
%ADD28O,1.700000X2.000000*%
%ADD29RoundRect,0.250000X-0.600000X-0.750000X0.600000X-0.750000X0.600000X0.750000X-0.600000X0.750000X0*%
%ADD30RoundRect,0.218750X-0.218750X-0.256250X0.218750X-0.256250X0.218750X0.256250X-0.218750X0.256250X0*%
%ADD31RoundRect,0.225000X0.250000X-0.225000X0.250000X0.225000X-0.250000X0.225000X-0.250000X-0.225000X0*%
%ADD32RoundRect,0.250000X0.262500X0.450000X-0.262500X0.450000X-0.262500X-0.450000X0.262500X-0.450000X0*%
%ADD33R,0.939800X1.219200*%
%ADD34R,5.511800X6.273800*%
%ADD35RoundRect,0.200000X0.275000X-0.200000X0.275000X0.200000X-0.275000X0.200000X-0.275000X-0.200000X0*%
%ADD36RoundRect,0.250000X-0.475000X0.250000X-0.475000X-0.250000X0.475000X-0.250000X0.475000X0.250000X0*%
%ADD37O,2.000000X1.700000*%
%ADD38RoundRect,0.250000X0.750000X-0.600000X0.750000X0.600000X-0.750000X0.600000X-0.750000X-0.600000X0*%
%ADD39RoundRect,0.095000X0.380000X-0.921000X0.380000X0.921000X-0.380000X0.921000X-0.380000X-0.921000X0*%
%ADD40RoundRect,0.095000X-0.380000X0.921000X-0.380000X-0.921000X0.380000X-0.921000X0.380000X0.921000X0*%
%ADD41FreePoly0,90.000000*%
%ADD42FreePoly0,270.000000*%
%ADD43C,1.700000*%
%ADD44RoundRect,0.110000X1.140000X0.440000X-1.140000X0.440000X-1.140000X-0.440000X1.140000X-0.440000X0*%
%ADD45RoundRect,0.250000X-1.000000X1.150000X-1.000000X-1.150000X1.000000X-1.150000X1.000000X1.150000X0*%
%ADD46RoundRect,0.250000X0.600000X0.725000X-0.600000X0.725000X-0.600000X-0.725000X0.600000X-0.725000X0*%
%ADD47O,1.700000X1.950000*%
%ADD48RoundRect,0.225000X0.225000X0.250000X-0.225000X0.250000X-0.225000X-0.250000X0.225000X-0.250000X0*%
%ADD49RoundRect,0.250000X0.600000X0.750000X-0.600000X0.750000X-0.600000X-0.750000X0.600000X-0.750000X0*%
G04 APERTURE END LIST*
D10*
X23724809Y-11226189D02*
X23724809Y-11511903D01*
X23724809Y-11369046D02*
X23224809Y-11369046D01*
X23224809Y-11369046D02*
X23296238Y-11416665D01*
X23296238Y-11416665D02*
X23343857Y-11464284D01*
X23343857Y-11464284D02*
X23367666Y-11511903D01*
X23391476Y-10797618D02*
X23724809Y-10797618D01*
X23391476Y-11011904D02*
X23653380Y-11011904D01*
X23653380Y-11011904D02*
X23701000Y-10988094D01*
X23701000Y-10988094D02*
X23724809Y-10940475D01*
X23724809Y-10940475D02*
X23724809Y-10869047D01*
X23724809Y-10869047D02*
X23701000Y-10821428D01*
X23701000Y-10821428D02*
X23677190Y-10797618D01*
X23391476Y-10630951D02*
X23391476Y-10440475D01*
X23724809Y-10559523D02*
X23296238Y-10559523D01*
X23296238Y-10559523D02*
X23248619Y-10535713D01*
X23248619Y-10535713D02*
X23224809Y-10488094D01*
X23224809Y-10488094D02*
X23224809Y-10440475D01*
X26772428Y-9749998D02*
X26748619Y-9726189D01*
X26748619Y-9726189D02*
X26724809Y-9678570D01*
X26724809Y-9678570D02*
X26724809Y-9559522D01*
X26724809Y-9559522D02*
X26748619Y-9511903D01*
X26748619Y-9511903D02*
X26772428Y-9488094D01*
X26772428Y-9488094D02*
X26820047Y-9464284D01*
X26820047Y-9464284D02*
X26867666Y-9464284D01*
X26867666Y-9464284D02*
X26939095Y-9488094D01*
X26939095Y-9488094D02*
X27224809Y-9773808D01*
X27224809Y-9773808D02*
X27224809Y-9464284D01*
X26772428Y-9273808D02*
X26748619Y-9249999D01*
X26748619Y-9249999D02*
X26724809Y-9202380D01*
X26724809Y-9202380D02*
X26724809Y-9083332D01*
X26724809Y-9083332D02*
X26748619Y-9035713D01*
X26748619Y-9035713D02*
X26772428Y-9011904D01*
X26772428Y-9011904D02*
X26820047Y-8988094D01*
X26820047Y-8988094D02*
X26867666Y-8988094D01*
X26867666Y-8988094D02*
X26939095Y-9011904D01*
X26939095Y-9011904D02*
X27224809Y-9297618D01*
X27224809Y-9297618D02*
X27224809Y-8988094D01*
X26891476Y-8559523D02*
X27224809Y-8559523D01*
X26891476Y-8773809D02*
X27153380Y-8773809D01*
X27153380Y-8773809D02*
X27201000Y-8749999D01*
X27201000Y-8749999D02*
X27224809Y-8702380D01*
X27224809Y-8702380D02*
X27224809Y-8630952D01*
X27224809Y-8630952D02*
X27201000Y-8583333D01*
X27201000Y-8583333D02*
X27177190Y-8559523D01*
X26891476Y-8392856D02*
X26891476Y-8202380D01*
X27224809Y-8321428D02*
X26796238Y-8321428D01*
X26796238Y-8321428D02*
X26748619Y-8297618D01*
X26748619Y-8297618D02*
X26724809Y-8249999D01*
X26724809Y-8249999D02*
X26724809Y-8202380D01*
X26005809Y-11473618D02*
X26005809Y-11759332D01*
X26005809Y-11616475D02*
X25505809Y-11616475D01*
X25505809Y-11616475D02*
X25577238Y-11664094D01*
X25577238Y-11664094D02*
X25624857Y-11711713D01*
X25624857Y-11711713D02*
X25648666Y-11759332D01*
X25505809Y-11164095D02*
X25505809Y-11116476D01*
X25505809Y-11116476D02*
X25529619Y-11068857D01*
X25529619Y-11068857D02*
X25553428Y-11045047D01*
X25553428Y-11045047D02*
X25601047Y-11021238D01*
X25601047Y-11021238D02*
X25696285Y-10997428D01*
X25696285Y-10997428D02*
X25815333Y-10997428D01*
X25815333Y-10997428D02*
X25910571Y-11021238D01*
X25910571Y-11021238D02*
X25958190Y-11045047D01*
X25958190Y-11045047D02*
X25982000Y-11068857D01*
X25982000Y-11068857D02*
X26005809Y-11116476D01*
X26005809Y-11116476D02*
X26005809Y-11164095D01*
X26005809Y-11164095D02*
X25982000Y-11211714D01*
X25982000Y-11211714D02*
X25958190Y-11235523D01*
X25958190Y-11235523D02*
X25910571Y-11259333D01*
X25910571Y-11259333D02*
X25815333Y-11283142D01*
X25815333Y-11283142D02*
X25696285Y-11283142D01*
X25696285Y-11283142D02*
X25601047Y-11259333D01*
X25601047Y-11259333D02*
X25553428Y-11235523D01*
X25553428Y-11235523D02*
X25529619Y-11211714D01*
X25529619Y-11211714D02*
X25505809Y-11164095D01*
X26005809Y-10783143D02*
X25505809Y-10783143D01*
X25815333Y-10735524D02*
X26005809Y-10592667D01*
X25672476Y-10592667D02*
X25862952Y-10783143D01*
X19685536Y-15972809D02*
X19399822Y-15972809D01*
X19542679Y-15972809D02*
X19542679Y-15472809D01*
X19542679Y-15472809D02*
X19495060Y-15544238D01*
X19495060Y-15544238D02*
X19447441Y-15591857D01*
X19447441Y-15591857D02*
X19399822Y-15615666D01*
X19995059Y-15472809D02*
X20042678Y-15472809D01*
X20042678Y-15472809D02*
X20090297Y-15496619D01*
X20090297Y-15496619D02*
X20114107Y-15520428D01*
X20114107Y-15520428D02*
X20137916Y-15568047D01*
X20137916Y-15568047D02*
X20161726Y-15663285D01*
X20161726Y-15663285D02*
X20161726Y-15782333D01*
X20161726Y-15782333D02*
X20137916Y-15877571D01*
X20137916Y-15877571D02*
X20114107Y-15925190D01*
X20114107Y-15925190D02*
X20090297Y-15949000D01*
X20090297Y-15949000D02*
X20042678Y-15972809D01*
X20042678Y-15972809D02*
X19995059Y-15972809D01*
X19995059Y-15972809D02*
X19947440Y-15949000D01*
X19947440Y-15949000D02*
X19923631Y-15925190D01*
X19923631Y-15925190D02*
X19899821Y-15877571D01*
X19899821Y-15877571D02*
X19876012Y-15782333D01*
X19876012Y-15782333D02*
X19876012Y-15663285D01*
X19876012Y-15663285D02*
X19899821Y-15568047D01*
X19899821Y-15568047D02*
X19923631Y-15520428D01*
X19923631Y-15520428D02*
X19947440Y-15496619D01*
X19947440Y-15496619D02*
X19995059Y-15472809D01*
X20471249Y-15472809D02*
X20518868Y-15472809D01*
X20518868Y-15472809D02*
X20566487Y-15496619D01*
X20566487Y-15496619D02*
X20590297Y-15520428D01*
X20590297Y-15520428D02*
X20614106Y-15568047D01*
X20614106Y-15568047D02*
X20637916Y-15663285D01*
X20637916Y-15663285D02*
X20637916Y-15782333D01*
X20637916Y-15782333D02*
X20614106Y-15877571D01*
X20614106Y-15877571D02*
X20590297Y-15925190D01*
X20590297Y-15925190D02*
X20566487Y-15949000D01*
X20566487Y-15949000D02*
X20518868Y-15972809D01*
X20518868Y-15972809D02*
X20471249Y-15972809D01*
X20471249Y-15972809D02*
X20423630Y-15949000D01*
X20423630Y-15949000D02*
X20399821Y-15925190D01*
X20399821Y-15925190D02*
X20376011Y-15877571D01*
X20376011Y-15877571D02*
X20352202Y-15782333D01*
X20352202Y-15782333D02*
X20352202Y-15663285D01*
X20352202Y-15663285D02*
X20376011Y-15568047D01*
X20376011Y-15568047D02*
X20399821Y-15520428D01*
X20399821Y-15520428D02*
X20423630Y-15496619D01*
X20423630Y-15496619D02*
X20471249Y-15472809D01*
X20852201Y-15972809D02*
X20852201Y-15472809D01*
X20899820Y-15782333D02*
X21042677Y-15972809D01*
X21042677Y-15639476D02*
X20852201Y-15829952D01*
X17716896Y-9369476D02*
X17716896Y-9702809D01*
X17597848Y-9179000D02*
X17478801Y-9536142D01*
X17478801Y-9536142D02*
X17788324Y-9536142D01*
X17931181Y-9202809D02*
X18264514Y-9202809D01*
X18264514Y-9202809D02*
X18050229Y-9702809D01*
X18669276Y-9369476D02*
X18669276Y-9702809D01*
X18454990Y-9369476D02*
X18454990Y-9631380D01*
X18454990Y-9631380D02*
X18478800Y-9679000D01*
X18478800Y-9679000D02*
X18526419Y-9702809D01*
X18526419Y-9702809D02*
X18597847Y-9702809D01*
X18597847Y-9702809D02*
X18645466Y-9679000D01*
X18645466Y-9679000D02*
X18669276Y-9655190D01*
X18835943Y-9369476D02*
X19026419Y-9369476D01*
X18907371Y-9702809D02*
X18907371Y-9274238D01*
X18907371Y-9274238D02*
X18931181Y-9226619D01*
X18931181Y-9226619D02*
X18978800Y-9202809D01*
X18978800Y-9202809D02*
X19026419Y-9202809D01*
X19669275Y-9202809D02*
X19716894Y-9202809D01*
X19716894Y-9202809D02*
X19764513Y-9226619D01*
X19764513Y-9226619D02*
X19788323Y-9250428D01*
X19788323Y-9250428D02*
X19812132Y-9298047D01*
X19812132Y-9298047D02*
X19835942Y-9393285D01*
X19835942Y-9393285D02*
X19835942Y-9512333D01*
X19835942Y-9512333D02*
X19812132Y-9607571D01*
X19812132Y-9607571D02*
X19788323Y-9655190D01*
X19788323Y-9655190D02*
X19764513Y-9679000D01*
X19764513Y-9679000D02*
X19716894Y-9702809D01*
X19716894Y-9702809D02*
X19669275Y-9702809D01*
X19669275Y-9702809D02*
X19621656Y-9679000D01*
X19621656Y-9679000D02*
X19597847Y-9655190D01*
X19597847Y-9655190D02*
X19574037Y-9607571D01*
X19574037Y-9607571D02*
X19550228Y-9512333D01*
X19550228Y-9512333D02*
X19550228Y-9393285D01*
X19550228Y-9393285D02*
X19574037Y-9298047D01*
X19574037Y-9298047D02*
X19597847Y-9250428D01*
X19597847Y-9250428D02*
X19621656Y-9226619D01*
X19621656Y-9226619D02*
X19669275Y-9202809D01*
X20050227Y-9655190D02*
X20074037Y-9679000D01*
X20074037Y-9679000D02*
X20050227Y-9702809D01*
X20050227Y-9702809D02*
X20026418Y-9679000D01*
X20026418Y-9679000D02*
X20050227Y-9655190D01*
X20050227Y-9655190D02*
X20050227Y-9702809D01*
X20550227Y-9702809D02*
X20264513Y-9702809D01*
X20407370Y-9702809D02*
X20407370Y-9202809D01*
X20407370Y-9202809D02*
X20359751Y-9274238D01*
X20359751Y-9274238D02*
X20312132Y-9321857D01*
X20312132Y-9321857D02*
X20264513Y-9345666D01*
X20978798Y-9369476D02*
X20978798Y-9702809D01*
X20764512Y-9369476D02*
X20764512Y-9631380D01*
X20764512Y-9631380D02*
X20788322Y-9679000D01*
X20788322Y-9679000D02*
X20835941Y-9702809D01*
X20835941Y-9702809D02*
X20907369Y-9702809D01*
X20907369Y-9702809D02*
X20954988Y-9679000D01*
X20954988Y-9679000D02*
X20978798Y-9655190D01*
X21145465Y-9369476D02*
X21335941Y-9369476D01*
X21216893Y-9702809D02*
X21216893Y-9274238D01*
X21216893Y-9274238D02*
X21240703Y-9226619D01*
X21240703Y-9226619D02*
X21288322Y-9202809D01*
X21288322Y-9202809D02*
X21335941Y-9202809D01*
X4423976Y-6955809D02*
X4138262Y-6955809D01*
X4281119Y-6955809D02*
X4281119Y-6455809D01*
X4281119Y-6455809D02*
X4233500Y-6527238D01*
X4233500Y-6527238D02*
X4185881Y-6574857D01*
X4185881Y-6574857D02*
X4138262Y-6598666D01*
X4638261Y-6955809D02*
X4638261Y-6455809D01*
X4685880Y-6765333D02*
X4828737Y-6955809D01*
X4828737Y-6622476D02*
X4638261Y-6812952D01*
X10477896Y-9369476D02*
X10477896Y-9702809D01*
X10358848Y-9179000D02*
X10239801Y-9536142D01*
X10239801Y-9536142D02*
X10549324Y-9536142D01*
X10692181Y-9202809D02*
X11025514Y-9202809D01*
X11025514Y-9202809D02*
X10811229Y-9702809D01*
X11430276Y-9369476D02*
X11430276Y-9702809D01*
X11215990Y-9369476D02*
X11215990Y-9631380D01*
X11215990Y-9631380D02*
X11239800Y-9679000D01*
X11239800Y-9679000D02*
X11287419Y-9702809D01*
X11287419Y-9702809D02*
X11358847Y-9702809D01*
X11358847Y-9702809D02*
X11406466Y-9679000D01*
X11406466Y-9679000D02*
X11430276Y-9655190D01*
X11596943Y-9369476D02*
X11787419Y-9369476D01*
X11668371Y-9702809D02*
X11668371Y-9274238D01*
X11668371Y-9274238D02*
X11692181Y-9226619D01*
X11692181Y-9226619D02*
X11739800Y-9202809D01*
X11739800Y-9202809D02*
X11787419Y-9202809D01*
X12430275Y-9202809D02*
X12477894Y-9202809D01*
X12477894Y-9202809D02*
X12525513Y-9226619D01*
X12525513Y-9226619D02*
X12549323Y-9250428D01*
X12549323Y-9250428D02*
X12573132Y-9298047D01*
X12573132Y-9298047D02*
X12596942Y-9393285D01*
X12596942Y-9393285D02*
X12596942Y-9512333D01*
X12596942Y-9512333D02*
X12573132Y-9607571D01*
X12573132Y-9607571D02*
X12549323Y-9655190D01*
X12549323Y-9655190D02*
X12525513Y-9679000D01*
X12525513Y-9679000D02*
X12477894Y-9702809D01*
X12477894Y-9702809D02*
X12430275Y-9702809D01*
X12430275Y-9702809D02*
X12382656Y-9679000D01*
X12382656Y-9679000D02*
X12358847Y-9655190D01*
X12358847Y-9655190D02*
X12335037Y-9607571D01*
X12335037Y-9607571D02*
X12311228Y-9512333D01*
X12311228Y-9512333D02*
X12311228Y-9393285D01*
X12311228Y-9393285D02*
X12335037Y-9298047D01*
X12335037Y-9298047D02*
X12358847Y-9250428D01*
X12358847Y-9250428D02*
X12382656Y-9226619D01*
X12382656Y-9226619D02*
X12430275Y-9202809D01*
X12811227Y-9655190D02*
X12835037Y-9679000D01*
X12835037Y-9679000D02*
X12811227Y-9702809D01*
X12811227Y-9702809D02*
X12787418Y-9679000D01*
X12787418Y-9679000D02*
X12811227Y-9655190D01*
X12811227Y-9655190D02*
X12811227Y-9702809D01*
X13311227Y-9702809D02*
X13025513Y-9702809D01*
X13168370Y-9702809D02*
X13168370Y-9202809D01*
X13168370Y-9202809D02*
X13120751Y-9274238D01*
X13120751Y-9274238D02*
X13073132Y-9321857D01*
X13073132Y-9321857D02*
X13025513Y-9345666D01*
X13739798Y-9369476D02*
X13739798Y-9702809D01*
X13525512Y-9369476D02*
X13525512Y-9631380D01*
X13525512Y-9631380D02*
X13549322Y-9679000D01*
X13549322Y-9679000D02*
X13596941Y-9702809D01*
X13596941Y-9702809D02*
X13668369Y-9702809D01*
X13668369Y-9702809D02*
X13715988Y-9679000D01*
X13715988Y-9679000D02*
X13739798Y-9655190D01*
X13906465Y-9369476D02*
X14096941Y-9369476D01*
X13977893Y-9702809D02*
X13977893Y-9274238D01*
X13977893Y-9274238D02*
X14001703Y-9226619D01*
X14001703Y-9226619D02*
X14049322Y-9202809D01*
X14049322Y-9202809D02*
X14096941Y-9202809D01*
X16923457Y-15972809D02*
X16637743Y-15972809D01*
X16780600Y-15972809D02*
X16780600Y-15472809D01*
X16780600Y-15472809D02*
X16732981Y-15544238D01*
X16732981Y-15544238D02*
X16685362Y-15591857D01*
X16685362Y-15591857D02*
X16637743Y-15615666D01*
X17137742Y-15972809D02*
X17137742Y-15472809D01*
X17137742Y-15472809D02*
X17304409Y-15829952D01*
X17304409Y-15829952D02*
X17471075Y-15472809D01*
X17471075Y-15472809D02*
X17471075Y-15972809D01*
X26132809Y-13668332D02*
X26132809Y-13954046D01*
X26132809Y-13811189D02*
X25632809Y-13811189D01*
X25632809Y-13811189D02*
X25704238Y-13858808D01*
X25704238Y-13858808D02*
X25751857Y-13906427D01*
X25751857Y-13906427D02*
X25775666Y-13954046D01*
X25632809Y-13358809D02*
X25632809Y-13311190D01*
X25632809Y-13311190D02*
X25656619Y-13263571D01*
X25656619Y-13263571D02*
X25680428Y-13239761D01*
X25680428Y-13239761D02*
X25728047Y-13215952D01*
X25728047Y-13215952D02*
X25823285Y-13192142D01*
X25823285Y-13192142D02*
X25942333Y-13192142D01*
X25942333Y-13192142D02*
X26037571Y-13215952D01*
X26037571Y-13215952D02*
X26085190Y-13239761D01*
X26085190Y-13239761D02*
X26109000Y-13263571D01*
X26109000Y-13263571D02*
X26132809Y-13311190D01*
X26132809Y-13311190D02*
X26132809Y-13358809D01*
X26132809Y-13358809D02*
X26109000Y-13406428D01*
X26109000Y-13406428D02*
X26085190Y-13430237D01*
X26085190Y-13430237D02*
X26037571Y-13454047D01*
X26037571Y-13454047D02*
X25942333Y-13477856D01*
X25942333Y-13477856D02*
X25823285Y-13477856D01*
X25823285Y-13477856D02*
X25728047Y-13454047D01*
X25728047Y-13454047D02*
X25680428Y-13430237D01*
X25680428Y-13430237D02*
X25656619Y-13406428D01*
X25656619Y-13406428D02*
X25632809Y-13358809D01*
X25632809Y-12882619D02*
X25632809Y-12835000D01*
X25632809Y-12835000D02*
X25656619Y-12787381D01*
X25656619Y-12787381D02*
X25680428Y-12763571D01*
X25680428Y-12763571D02*
X25728047Y-12739762D01*
X25728047Y-12739762D02*
X25823285Y-12715952D01*
X25823285Y-12715952D02*
X25942333Y-12715952D01*
X25942333Y-12715952D02*
X26037571Y-12739762D01*
X26037571Y-12739762D02*
X26085190Y-12763571D01*
X26085190Y-12763571D02*
X26109000Y-12787381D01*
X26109000Y-12787381D02*
X26132809Y-12835000D01*
X26132809Y-12835000D02*
X26132809Y-12882619D01*
X26132809Y-12882619D02*
X26109000Y-12930238D01*
X26109000Y-12930238D02*
X26085190Y-12954047D01*
X26085190Y-12954047D02*
X26037571Y-12977857D01*
X26037571Y-12977857D02*
X25942333Y-13001666D01*
X25942333Y-13001666D02*
X25823285Y-13001666D01*
X25823285Y-13001666D02*
X25728047Y-12977857D01*
X25728047Y-12977857D02*
X25680428Y-12954047D01*
X25680428Y-12954047D02*
X25656619Y-12930238D01*
X25656619Y-12930238D02*
X25632809Y-12882619D01*
X10354476Y-33625809D02*
X10068762Y-33625809D01*
X10211619Y-33625809D02*
X10211619Y-33125809D01*
X10211619Y-33125809D02*
X10164000Y-33197238D01*
X10164000Y-33197238D02*
X10116381Y-33244857D01*
X10116381Y-33244857D02*
X10068762Y-33268666D01*
X10568761Y-33625809D02*
X10568761Y-33125809D01*
X10616380Y-33435333D02*
X10759237Y-33625809D01*
X10759237Y-33292476D02*
X10568761Y-33482952D01*
X9714643Y-18174726D02*
X9714643Y-18508059D01*
X9595595Y-17984250D02*
X9476548Y-18341392D01*
X9476548Y-18341392D02*
X9786071Y-18341392D01*
X9928928Y-18008059D02*
X10262261Y-18008059D01*
X10262261Y-18008059D02*
X10047976Y-18508059D01*
X10336309Y-24295868D02*
X10336309Y-24581582D01*
X10336309Y-24438725D02*
X9836309Y-24438725D01*
X9836309Y-24438725D02*
X9907738Y-24486344D01*
X9907738Y-24486344D02*
X9955357Y-24533963D01*
X9955357Y-24533963D02*
X9979166Y-24581582D01*
X9836309Y-23986345D02*
X9836309Y-23938726D01*
X9836309Y-23938726D02*
X9860119Y-23891107D01*
X9860119Y-23891107D02*
X9883928Y-23867297D01*
X9883928Y-23867297D02*
X9931547Y-23843488D01*
X9931547Y-23843488D02*
X10026785Y-23819678D01*
X10026785Y-23819678D02*
X10145833Y-23819678D01*
X10145833Y-23819678D02*
X10241071Y-23843488D01*
X10241071Y-23843488D02*
X10288690Y-23867297D01*
X10288690Y-23867297D02*
X10312500Y-23891107D01*
X10312500Y-23891107D02*
X10336309Y-23938726D01*
X10336309Y-23938726D02*
X10336309Y-23986345D01*
X10336309Y-23986345D02*
X10312500Y-24033964D01*
X10312500Y-24033964D02*
X10288690Y-24057773D01*
X10288690Y-24057773D02*
X10241071Y-24081583D01*
X10241071Y-24081583D02*
X10145833Y-24105392D01*
X10145833Y-24105392D02*
X10026785Y-24105392D01*
X10026785Y-24105392D02*
X9931547Y-24081583D01*
X9931547Y-24081583D02*
X9883928Y-24057773D01*
X9883928Y-24057773D02*
X9860119Y-24033964D01*
X9860119Y-24033964D02*
X9836309Y-23986345D01*
X10336309Y-23605393D02*
X9836309Y-23605393D01*
X10145833Y-23557774D02*
X10336309Y-23414917D01*
X10002976Y-23414917D02*
X10193452Y-23605393D01*
X27261381Y-37054809D02*
X26975667Y-37054809D01*
X27118524Y-37054809D02*
X27118524Y-36554809D01*
X27118524Y-36554809D02*
X27070905Y-36626238D01*
X27070905Y-36626238D02*
X27023286Y-36673857D01*
X27023286Y-36673857D02*
X26975667Y-36697666D01*
X27570904Y-36554809D02*
X27618523Y-36554809D01*
X27618523Y-36554809D02*
X27666142Y-36578619D01*
X27666142Y-36578619D02*
X27689952Y-36602428D01*
X27689952Y-36602428D02*
X27713761Y-36650047D01*
X27713761Y-36650047D02*
X27737571Y-36745285D01*
X27737571Y-36745285D02*
X27737571Y-36864333D01*
X27737571Y-36864333D02*
X27713761Y-36959571D01*
X27713761Y-36959571D02*
X27689952Y-37007190D01*
X27689952Y-37007190D02*
X27666142Y-37031000D01*
X27666142Y-37031000D02*
X27618523Y-37054809D01*
X27618523Y-37054809D02*
X27570904Y-37054809D01*
X27570904Y-37054809D02*
X27523285Y-37031000D01*
X27523285Y-37031000D02*
X27499476Y-37007190D01*
X27499476Y-37007190D02*
X27475666Y-36959571D01*
X27475666Y-36959571D02*
X27451857Y-36864333D01*
X27451857Y-36864333D02*
X27451857Y-36745285D01*
X27451857Y-36745285D02*
X27475666Y-36650047D01*
X27475666Y-36650047D02*
X27499476Y-36602428D01*
X27499476Y-36602428D02*
X27523285Y-36578619D01*
X27523285Y-36578619D02*
X27570904Y-36554809D01*
X27951856Y-37054809D02*
X27951856Y-36554809D01*
X27999475Y-36864333D02*
X28142332Y-37054809D01*
X28142332Y-36721476D02*
X27951856Y-36911952D01*
X19260381Y-36927809D02*
X18974667Y-36927809D01*
X19117524Y-36927809D02*
X19117524Y-36427809D01*
X19117524Y-36427809D02*
X19069905Y-36499238D01*
X19069905Y-36499238D02*
X19022286Y-36546857D01*
X19022286Y-36546857D02*
X18974667Y-36570666D01*
X19569904Y-36427809D02*
X19617523Y-36427809D01*
X19617523Y-36427809D02*
X19665142Y-36451619D01*
X19665142Y-36451619D02*
X19688952Y-36475428D01*
X19688952Y-36475428D02*
X19712761Y-36523047D01*
X19712761Y-36523047D02*
X19736571Y-36618285D01*
X19736571Y-36618285D02*
X19736571Y-36737333D01*
X19736571Y-36737333D02*
X19712761Y-36832571D01*
X19712761Y-36832571D02*
X19688952Y-36880190D01*
X19688952Y-36880190D02*
X19665142Y-36904000D01*
X19665142Y-36904000D02*
X19617523Y-36927809D01*
X19617523Y-36927809D02*
X19569904Y-36927809D01*
X19569904Y-36927809D02*
X19522285Y-36904000D01*
X19522285Y-36904000D02*
X19498476Y-36880190D01*
X19498476Y-36880190D02*
X19474666Y-36832571D01*
X19474666Y-36832571D02*
X19450857Y-36737333D01*
X19450857Y-36737333D02*
X19450857Y-36618285D01*
X19450857Y-36618285D02*
X19474666Y-36523047D01*
X19474666Y-36523047D02*
X19498476Y-36475428D01*
X19498476Y-36475428D02*
X19522285Y-36451619D01*
X19522285Y-36451619D02*
X19569904Y-36427809D01*
X19950856Y-36927809D02*
X19950856Y-36427809D01*
X19998475Y-36737333D02*
X20141332Y-36927809D01*
X20141332Y-36594476D02*
X19950856Y-36784952D01*
X11132381Y-31974809D02*
X10846667Y-31974809D01*
X10989524Y-31974809D02*
X10989524Y-31474809D01*
X10989524Y-31474809D02*
X10941905Y-31546238D01*
X10941905Y-31546238D02*
X10894286Y-31593857D01*
X10894286Y-31593857D02*
X10846667Y-31617666D01*
X11441904Y-31474809D02*
X11489523Y-31474809D01*
X11489523Y-31474809D02*
X11537142Y-31498619D01*
X11537142Y-31498619D02*
X11560952Y-31522428D01*
X11560952Y-31522428D02*
X11584761Y-31570047D01*
X11584761Y-31570047D02*
X11608571Y-31665285D01*
X11608571Y-31665285D02*
X11608571Y-31784333D01*
X11608571Y-31784333D02*
X11584761Y-31879571D01*
X11584761Y-31879571D02*
X11560952Y-31927190D01*
X11560952Y-31927190D02*
X11537142Y-31951000D01*
X11537142Y-31951000D02*
X11489523Y-31974809D01*
X11489523Y-31974809D02*
X11441904Y-31974809D01*
X11441904Y-31974809D02*
X11394285Y-31951000D01*
X11394285Y-31951000D02*
X11370476Y-31927190D01*
X11370476Y-31927190D02*
X11346666Y-31879571D01*
X11346666Y-31879571D02*
X11322857Y-31784333D01*
X11322857Y-31784333D02*
X11322857Y-31665285D01*
X11322857Y-31665285D02*
X11346666Y-31570047D01*
X11346666Y-31570047D02*
X11370476Y-31522428D01*
X11370476Y-31522428D02*
X11394285Y-31498619D01*
X11394285Y-31498619D02*
X11441904Y-31474809D01*
X11822856Y-31974809D02*
X11822856Y-31474809D01*
X11870475Y-31784333D02*
X12013332Y-31974809D01*
X12013332Y-31641476D02*
X11822856Y-31831952D01*
X11513381Y-37054809D02*
X11227667Y-37054809D01*
X11370524Y-37054809D02*
X11370524Y-36554809D01*
X11370524Y-36554809D02*
X11322905Y-36626238D01*
X11322905Y-36626238D02*
X11275286Y-36673857D01*
X11275286Y-36673857D02*
X11227667Y-36697666D01*
X11822904Y-36554809D02*
X11870523Y-36554809D01*
X11870523Y-36554809D02*
X11918142Y-36578619D01*
X11918142Y-36578619D02*
X11941952Y-36602428D01*
X11941952Y-36602428D02*
X11965761Y-36650047D01*
X11965761Y-36650047D02*
X11989571Y-36745285D01*
X11989571Y-36745285D02*
X11989571Y-36864333D01*
X11989571Y-36864333D02*
X11965761Y-36959571D01*
X11965761Y-36959571D02*
X11941952Y-37007190D01*
X11941952Y-37007190D02*
X11918142Y-37031000D01*
X11918142Y-37031000D02*
X11870523Y-37054809D01*
X11870523Y-37054809D02*
X11822904Y-37054809D01*
X11822904Y-37054809D02*
X11775285Y-37031000D01*
X11775285Y-37031000D02*
X11751476Y-37007190D01*
X11751476Y-37007190D02*
X11727666Y-36959571D01*
X11727666Y-36959571D02*
X11703857Y-36864333D01*
X11703857Y-36864333D02*
X11703857Y-36745285D01*
X11703857Y-36745285D02*
X11727666Y-36650047D01*
X11727666Y-36650047D02*
X11751476Y-36602428D01*
X11751476Y-36602428D02*
X11775285Y-36578619D01*
X11775285Y-36578619D02*
X11822904Y-36554809D01*
X12203856Y-37054809D02*
X12203856Y-36554809D01*
X12251475Y-36864333D02*
X12394332Y-37054809D01*
X12394332Y-36721476D02*
X12203856Y-36911952D01*
X5036381Y-44928809D02*
X4750667Y-44928809D01*
X4893524Y-44928809D02*
X4893524Y-44428809D01*
X4893524Y-44428809D02*
X4845905Y-44500238D01*
X4845905Y-44500238D02*
X4798286Y-44547857D01*
X4798286Y-44547857D02*
X4750667Y-44571666D01*
X5345904Y-44428809D02*
X5393523Y-44428809D01*
X5393523Y-44428809D02*
X5441142Y-44452619D01*
X5441142Y-44452619D02*
X5464952Y-44476428D01*
X5464952Y-44476428D02*
X5488761Y-44524047D01*
X5488761Y-44524047D02*
X5512571Y-44619285D01*
X5512571Y-44619285D02*
X5512571Y-44738333D01*
X5512571Y-44738333D02*
X5488761Y-44833571D01*
X5488761Y-44833571D02*
X5464952Y-44881190D01*
X5464952Y-44881190D02*
X5441142Y-44905000D01*
X5441142Y-44905000D02*
X5393523Y-44928809D01*
X5393523Y-44928809D02*
X5345904Y-44928809D01*
X5345904Y-44928809D02*
X5298285Y-44905000D01*
X5298285Y-44905000D02*
X5274476Y-44881190D01*
X5274476Y-44881190D02*
X5250666Y-44833571D01*
X5250666Y-44833571D02*
X5226857Y-44738333D01*
X5226857Y-44738333D02*
X5226857Y-44619285D01*
X5226857Y-44619285D02*
X5250666Y-44524047D01*
X5250666Y-44524047D02*
X5274476Y-44476428D01*
X5274476Y-44476428D02*
X5298285Y-44452619D01*
X5298285Y-44452619D02*
X5345904Y-44428809D01*
X5726856Y-44928809D02*
X5726856Y-44428809D01*
X5774475Y-44738333D02*
X5917332Y-44928809D01*
X5917332Y-44595476D02*
X5726856Y-44785952D01*
X26245381Y-44928809D02*
X25959667Y-44928809D01*
X26102524Y-44928809D02*
X26102524Y-44428809D01*
X26102524Y-44428809D02*
X26054905Y-44500238D01*
X26054905Y-44500238D02*
X26007286Y-44547857D01*
X26007286Y-44547857D02*
X25959667Y-44571666D01*
X26554904Y-44428809D02*
X26602523Y-44428809D01*
X26602523Y-44428809D02*
X26650142Y-44452619D01*
X26650142Y-44452619D02*
X26673952Y-44476428D01*
X26673952Y-44476428D02*
X26697761Y-44524047D01*
X26697761Y-44524047D02*
X26721571Y-44619285D01*
X26721571Y-44619285D02*
X26721571Y-44738333D01*
X26721571Y-44738333D02*
X26697761Y-44833571D01*
X26697761Y-44833571D02*
X26673952Y-44881190D01*
X26673952Y-44881190D02*
X26650142Y-44905000D01*
X26650142Y-44905000D02*
X26602523Y-44928809D01*
X26602523Y-44928809D02*
X26554904Y-44928809D01*
X26554904Y-44928809D02*
X26507285Y-44905000D01*
X26507285Y-44905000D02*
X26483476Y-44881190D01*
X26483476Y-44881190D02*
X26459666Y-44833571D01*
X26459666Y-44833571D02*
X26435857Y-44738333D01*
X26435857Y-44738333D02*
X26435857Y-44619285D01*
X26435857Y-44619285D02*
X26459666Y-44524047D01*
X26459666Y-44524047D02*
X26483476Y-44476428D01*
X26483476Y-44476428D02*
X26507285Y-44452619D01*
X26507285Y-44452619D02*
X26554904Y-44428809D01*
X26935856Y-44928809D02*
X26935856Y-44428809D01*
X26983475Y-44738333D02*
X27126332Y-44928809D01*
X27126332Y-44595476D02*
X26935856Y-44785952D01*
X10336309Y-25982582D02*
X10336309Y-26268296D01*
X10336309Y-26125439D02*
X9836309Y-26125439D01*
X9836309Y-26125439D02*
X9907738Y-26173058D01*
X9907738Y-26173058D02*
X9955357Y-26220677D01*
X9955357Y-26220677D02*
X9979166Y-26268296D01*
X9836309Y-25673059D02*
X9836309Y-25625440D01*
X9836309Y-25625440D02*
X9860119Y-25577821D01*
X9860119Y-25577821D02*
X9883928Y-25554011D01*
X9883928Y-25554011D02*
X9931547Y-25530202D01*
X9931547Y-25530202D02*
X10026785Y-25506392D01*
X10026785Y-25506392D02*
X10145833Y-25506392D01*
X10145833Y-25506392D02*
X10241071Y-25530202D01*
X10241071Y-25530202D02*
X10288690Y-25554011D01*
X10288690Y-25554011D02*
X10312500Y-25577821D01*
X10312500Y-25577821D02*
X10336309Y-25625440D01*
X10336309Y-25625440D02*
X10336309Y-25673059D01*
X10336309Y-25673059D02*
X10312500Y-25720678D01*
X10312500Y-25720678D02*
X10288690Y-25744487D01*
X10288690Y-25744487D02*
X10241071Y-25768297D01*
X10241071Y-25768297D02*
X10145833Y-25792106D01*
X10145833Y-25792106D02*
X10026785Y-25792106D01*
X10026785Y-25792106D02*
X9931547Y-25768297D01*
X9931547Y-25768297D02*
X9883928Y-25744487D01*
X9883928Y-25744487D02*
X9860119Y-25720678D01*
X9860119Y-25720678D02*
X9836309Y-25673059D01*
X9836309Y-25196869D02*
X9836309Y-25149250D01*
X9836309Y-25149250D02*
X9860119Y-25101631D01*
X9860119Y-25101631D02*
X9883928Y-25077821D01*
X9883928Y-25077821D02*
X9931547Y-25054012D01*
X9931547Y-25054012D02*
X10026785Y-25030202D01*
X10026785Y-25030202D02*
X10145833Y-25030202D01*
X10145833Y-25030202D02*
X10241071Y-25054012D01*
X10241071Y-25054012D02*
X10288690Y-25077821D01*
X10288690Y-25077821D02*
X10312500Y-25101631D01*
X10312500Y-25101631D02*
X10336309Y-25149250D01*
X10336309Y-25149250D02*
X10336309Y-25196869D01*
X10336309Y-25196869D02*
X10312500Y-25244488D01*
X10312500Y-25244488D02*
X10288690Y-25268297D01*
X10288690Y-25268297D02*
X10241071Y-25292107D01*
X10241071Y-25292107D02*
X10145833Y-25315916D01*
X10145833Y-25315916D02*
X10026785Y-25315916D01*
X10026785Y-25315916D02*
X9931547Y-25292107D01*
X9931547Y-25292107D02*
X9883928Y-25268297D01*
X9883928Y-25268297D02*
X9860119Y-25244488D01*
X9860119Y-25244488D02*
X9836309Y-25196869D01*
X10384809Y-27511332D02*
X10384809Y-27797046D01*
X10384809Y-27654189D02*
X9884809Y-27654189D01*
X9884809Y-27654189D02*
X9956238Y-27701808D01*
X9956238Y-27701808D02*
X10003857Y-27749427D01*
X10003857Y-27749427D02*
X10027666Y-27797046D01*
X9884809Y-27201809D02*
X9884809Y-27154190D01*
X9884809Y-27154190D02*
X9908619Y-27106571D01*
X9908619Y-27106571D02*
X9932428Y-27082761D01*
X9932428Y-27082761D02*
X9980047Y-27058952D01*
X9980047Y-27058952D02*
X10075285Y-27035142D01*
X10075285Y-27035142D02*
X10194333Y-27035142D01*
X10194333Y-27035142D02*
X10289571Y-27058952D01*
X10289571Y-27058952D02*
X10337190Y-27082761D01*
X10337190Y-27082761D02*
X10361000Y-27106571D01*
X10361000Y-27106571D02*
X10384809Y-27154190D01*
X10384809Y-27154190D02*
X10384809Y-27201809D01*
X10384809Y-27201809D02*
X10361000Y-27249428D01*
X10361000Y-27249428D02*
X10337190Y-27273237D01*
X10337190Y-27273237D02*
X10289571Y-27297047D01*
X10289571Y-27297047D02*
X10194333Y-27320856D01*
X10194333Y-27320856D02*
X10075285Y-27320856D01*
X10075285Y-27320856D02*
X9980047Y-27297047D01*
X9980047Y-27297047D02*
X9932428Y-27273237D01*
X9932428Y-27273237D02*
X9908619Y-27249428D01*
X9908619Y-27249428D02*
X9884809Y-27201809D01*
X9884809Y-26725619D02*
X9884809Y-26678000D01*
X9884809Y-26678000D02*
X9908619Y-26630381D01*
X9908619Y-26630381D02*
X9932428Y-26606571D01*
X9932428Y-26606571D02*
X9980047Y-26582762D01*
X9980047Y-26582762D02*
X10075285Y-26558952D01*
X10075285Y-26558952D02*
X10194333Y-26558952D01*
X10194333Y-26558952D02*
X10289571Y-26582762D01*
X10289571Y-26582762D02*
X10337190Y-26606571D01*
X10337190Y-26606571D02*
X10361000Y-26630381D01*
X10361000Y-26630381D02*
X10384809Y-26678000D01*
X10384809Y-26678000D02*
X10384809Y-26725619D01*
X10384809Y-26725619D02*
X10361000Y-26773238D01*
X10361000Y-26773238D02*
X10337190Y-26797047D01*
X10337190Y-26797047D02*
X10289571Y-26820857D01*
X10289571Y-26820857D02*
X10194333Y-26844666D01*
X10194333Y-26844666D02*
X10075285Y-26844666D01*
X10075285Y-26844666D02*
X9980047Y-26820857D01*
X9980047Y-26820857D02*
X9932428Y-26797047D01*
X9932428Y-26797047D02*
X9908619Y-26773238D01*
X9908619Y-26773238D02*
X9884809Y-26725619D01*
X23542667Y-44928809D02*
X23256953Y-44928809D01*
X23399810Y-44928809D02*
X23399810Y-44428809D01*
X23399810Y-44428809D02*
X23352191Y-44500238D01*
X23352191Y-44500238D02*
X23304572Y-44547857D01*
X23304572Y-44547857D02*
X23256953Y-44571666D01*
X23852190Y-44428809D02*
X23899809Y-44428809D01*
X23899809Y-44428809D02*
X23947428Y-44452619D01*
X23947428Y-44452619D02*
X23971238Y-44476428D01*
X23971238Y-44476428D02*
X23995047Y-44524047D01*
X23995047Y-44524047D02*
X24018857Y-44619285D01*
X24018857Y-44619285D02*
X24018857Y-44738333D01*
X24018857Y-44738333D02*
X23995047Y-44833571D01*
X23995047Y-44833571D02*
X23971238Y-44881190D01*
X23971238Y-44881190D02*
X23947428Y-44905000D01*
X23947428Y-44905000D02*
X23899809Y-44928809D01*
X23899809Y-44928809D02*
X23852190Y-44928809D01*
X23852190Y-44928809D02*
X23804571Y-44905000D01*
X23804571Y-44905000D02*
X23780762Y-44881190D01*
X23780762Y-44881190D02*
X23756952Y-44833571D01*
X23756952Y-44833571D02*
X23733143Y-44738333D01*
X23733143Y-44738333D02*
X23733143Y-44619285D01*
X23733143Y-44619285D02*
X23756952Y-44524047D01*
X23756952Y-44524047D02*
X23780762Y-44476428D01*
X23780762Y-44476428D02*
X23804571Y-44452619D01*
X23804571Y-44452619D02*
X23852190Y-44428809D01*
X24328380Y-44428809D02*
X24375999Y-44428809D01*
X24375999Y-44428809D02*
X24423618Y-44452619D01*
X24423618Y-44452619D02*
X24447428Y-44476428D01*
X24447428Y-44476428D02*
X24471237Y-44524047D01*
X24471237Y-44524047D02*
X24495047Y-44619285D01*
X24495047Y-44619285D02*
X24495047Y-44738333D01*
X24495047Y-44738333D02*
X24471237Y-44833571D01*
X24471237Y-44833571D02*
X24447428Y-44881190D01*
X24447428Y-44881190D02*
X24423618Y-44905000D01*
X24423618Y-44905000D02*
X24375999Y-44928809D01*
X24375999Y-44928809D02*
X24328380Y-44928809D01*
X24328380Y-44928809D02*
X24280761Y-44905000D01*
X24280761Y-44905000D02*
X24256952Y-44881190D01*
X24256952Y-44881190D02*
X24233142Y-44833571D01*
X24233142Y-44833571D02*
X24209333Y-44738333D01*
X24209333Y-44738333D02*
X24209333Y-44619285D01*
X24209333Y-44619285D02*
X24233142Y-44524047D01*
X24233142Y-44524047D02*
X24256952Y-44476428D01*
X24256952Y-44476428D02*
X24280761Y-44452619D01*
X24280761Y-44452619D02*
X24328380Y-44428809D01*
X12597667Y-44928809D02*
X12311953Y-44928809D01*
X12454810Y-44928809D02*
X12454810Y-44428809D01*
X12454810Y-44428809D02*
X12407191Y-44500238D01*
X12407191Y-44500238D02*
X12359572Y-44547857D01*
X12359572Y-44547857D02*
X12311953Y-44571666D01*
X12907190Y-44428809D02*
X12954809Y-44428809D01*
X12954809Y-44428809D02*
X13002428Y-44452619D01*
X13002428Y-44452619D02*
X13026238Y-44476428D01*
X13026238Y-44476428D02*
X13050047Y-44524047D01*
X13050047Y-44524047D02*
X13073857Y-44619285D01*
X13073857Y-44619285D02*
X13073857Y-44738333D01*
X13073857Y-44738333D02*
X13050047Y-44833571D01*
X13050047Y-44833571D02*
X13026238Y-44881190D01*
X13026238Y-44881190D02*
X13002428Y-44905000D01*
X13002428Y-44905000D02*
X12954809Y-44928809D01*
X12954809Y-44928809D02*
X12907190Y-44928809D01*
X12907190Y-44928809D02*
X12859571Y-44905000D01*
X12859571Y-44905000D02*
X12835762Y-44881190D01*
X12835762Y-44881190D02*
X12811952Y-44833571D01*
X12811952Y-44833571D02*
X12788143Y-44738333D01*
X12788143Y-44738333D02*
X12788143Y-44619285D01*
X12788143Y-44619285D02*
X12811952Y-44524047D01*
X12811952Y-44524047D02*
X12835762Y-44476428D01*
X12835762Y-44476428D02*
X12859571Y-44452619D01*
X12859571Y-44452619D02*
X12907190Y-44428809D01*
X13383380Y-44428809D02*
X13430999Y-44428809D01*
X13430999Y-44428809D02*
X13478618Y-44452619D01*
X13478618Y-44452619D02*
X13502428Y-44476428D01*
X13502428Y-44476428D02*
X13526237Y-44524047D01*
X13526237Y-44524047D02*
X13550047Y-44619285D01*
X13550047Y-44619285D02*
X13550047Y-44738333D01*
X13550047Y-44738333D02*
X13526237Y-44833571D01*
X13526237Y-44833571D02*
X13502428Y-44881190D01*
X13502428Y-44881190D02*
X13478618Y-44905000D01*
X13478618Y-44905000D02*
X13430999Y-44928809D01*
X13430999Y-44928809D02*
X13383380Y-44928809D01*
X13383380Y-44928809D02*
X13335761Y-44905000D01*
X13335761Y-44905000D02*
X13311952Y-44881190D01*
X13311952Y-44881190D02*
X13288142Y-44833571D01*
X13288142Y-44833571D02*
X13264333Y-44738333D01*
X13264333Y-44738333D02*
X13264333Y-44619285D01*
X13264333Y-44619285D02*
X13288142Y-44524047D01*
X13288142Y-44524047D02*
X13311952Y-44476428D01*
X13311952Y-44476428D02*
X13335761Y-44452619D01*
X13335761Y-44452619D02*
X13383380Y-44428809D01*
D11*
X11836319Y-24489250D02*
X10836319Y-24489250D01*
X11836319Y-23755917D02*
X11360128Y-23989250D01*
X11836319Y-24155917D02*
X10836319Y-24155917D01*
X10836319Y-24155917D02*
X10836319Y-23889250D01*
X10836319Y-23889250D02*
X10883938Y-23822584D01*
X10883938Y-23822584D02*
X10931557Y-23789250D01*
X10931557Y-23789250D02*
X11026795Y-23755917D01*
X11026795Y-23755917D02*
X11169652Y-23755917D01*
X11169652Y-23755917D02*
X11264890Y-23789250D01*
X11264890Y-23789250D02*
X11312509Y-23822584D01*
X11312509Y-23822584D02*
X11360128Y-23889250D01*
X11360128Y-23889250D02*
X11360128Y-24155917D01*
X11836319Y-23122584D02*
X11836319Y-23455917D01*
X11836319Y-23455917D02*
X10836319Y-23455917D01*
X11836319Y-22889250D02*
X10836319Y-22889250D01*
X10836319Y-22889250D02*
X11550604Y-22655917D01*
X11550604Y-22655917D02*
X10836319Y-22422583D01*
X10836319Y-22422583D02*
X11836319Y-22422583D01*
X11836319Y-21755917D02*
X11836319Y-22089250D01*
X11836319Y-22089250D02*
X10836319Y-22089250D01*
X10836319Y-21222583D02*
X10836319Y-21355916D01*
X10836319Y-21355916D02*
X10883938Y-21422583D01*
X10883938Y-21422583D02*
X10931557Y-21455916D01*
X10931557Y-21455916D02*
X11074414Y-21522583D01*
X11074414Y-21522583D02*
X11264890Y-21555916D01*
X11264890Y-21555916D02*
X11645842Y-21555916D01*
X11645842Y-21555916D02*
X11741080Y-21522583D01*
X11741080Y-21522583D02*
X11788700Y-21489250D01*
X11788700Y-21489250D02*
X11836319Y-21422583D01*
X11836319Y-21422583D02*
X11836319Y-21289250D01*
X11836319Y-21289250D02*
X11788700Y-21222583D01*
X11788700Y-21222583D02*
X11741080Y-21189250D01*
X11741080Y-21189250D02*
X11645842Y-21155916D01*
X11645842Y-21155916D02*
X11407747Y-21155916D01*
X11407747Y-21155916D02*
X11312509Y-21189250D01*
X11312509Y-21189250D02*
X11264890Y-21222583D01*
X11264890Y-21222583D02*
X11217271Y-21289250D01*
X11217271Y-21289250D02*
X11217271Y-21422583D01*
X11217271Y-21422583D02*
X11264890Y-21489250D01*
X11264890Y-21489250D02*
X11312509Y-21522583D01*
X11312509Y-21522583D02*
X11407747Y-21555916D01*
X10836319Y-20922583D02*
X10836319Y-20489249D01*
X10836319Y-20489249D02*
X11217271Y-20722583D01*
X11217271Y-20722583D02*
X11217271Y-20622583D01*
X11217271Y-20622583D02*
X11264890Y-20555916D01*
X11264890Y-20555916D02*
X11312509Y-20522583D01*
X11312509Y-20522583D02*
X11407747Y-20489249D01*
X11407747Y-20489249D02*
X11645842Y-20489249D01*
X11645842Y-20489249D02*
X11741080Y-20522583D01*
X11741080Y-20522583D02*
X11788700Y-20555916D01*
X11788700Y-20555916D02*
X11836319Y-20622583D01*
X11836319Y-20622583D02*
X11836319Y-20822583D01*
X11836319Y-20822583D02*
X11788700Y-20889249D01*
X11788700Y-20889249D02*
X11741080Y-20922583D01*
X11169652Y-19889249D02*
X11836319Y-19889249D01*
X10788700Y-20055916D02*
X11502985Y-20222582D01*
X11502985Y-20222582D02*
X11502985Y-19789249D01*
X11169652Y-19222582D02*
X11836319Y-19222582D01*
X10788700Y-19389249D02*
X11502985Y-19555915D01*
X11502985Y-19555915D02*
X11502985Y-19122582D01*
X24533405Y-6016819D02*
X24533405Y-5016819D01*
X24533405Y-5016819D02*
X24771500Y-5016819D01*
X24771500Y-5016819D02*
X24914357Y-5064438D01*
X24914357Y-5064438D02*
X25009595Y-5159676D01*
X25009595Y-5159676D02*
X25057214Y-5254914D01*
X25057214Y-5254914D02*
X25104833Y-5445390D01*
X25104833Y-5445390D02*
X25104833Y-5588247D01*
X25104833Y-5588247D02*
X25057214Y-5778723D01*
X25057214Y-5778723D02*
X25009595Y-5873961D01*
X25009595Y-5873961D02*
X24914357Y-5969200D01*
X24914357Y-5969200D02*
X24771500Y-6016819D01*
X24771500Y-6016819D02*
X24533405Y-6016819D01*
X25485786Y-5112057D02*
X25533405Y-5064438D01*
X25533405Y-5064438D02*
X25628643Y-5016819D01*
X25628643Y-5016819D02*
X25866738Y-5016819D01*
X25866738Y-5016819D02*
X25961976Y-5064438D01*
X25961976Y-5064438D02*
X26009595Y-5112057D01*
X26009595Y-5112057D02*
X26057214Y-5207295D01*
X26057214Y-5207295D02*
X26057214Y-5302533D01*
X26057214Y-5302533D02*
X26009595Y-5445390D01*
X26009595Y-5445390D02*
X25438167Y-6016819D01*
X25438167Y-6016819D02*
X26057214Y-6016819D01*
D10*
X12839143Y-14045119D02*
X12839143Y-13045119D01*
X13362952Y-14045119D02*
X13196286Y-13568928D01*
X13077238Y-14045119D02*
X13077238Y-13045119D01*
X13077238Y-13045119D02*
X13267714Y-13045119D01*
X13267714Y-13045119D02*
X13315333Y-13092738D01*
X13315333Y-13092738D02*
X13339143Y-13140357D01*
X13339143Y-13140357D02*
X13362952Y-13235595D01*
X13362952Y-13235595D02*
X13362952Y-13378452D01*
X13362952Y-13378452D02*
X13339143Y-13473690D01*
X13339143Y-13473690D02*
X13315333Y-13521309D01*
X13315333Y-13521309D02*
X13267714Y-13568928D01*
X13267714Y-13568928D02*
X13077238Y-13568928D01*
X13815333Y-14045119D02*
X13577238Y-14045119D01*
X13577238Y-14045119D02*
X13577238Y-13045119D01*
X13982000Y-14045119D02*
X13982000Y-13045119D01*
X13982000Y-13045119D02*
X14148667Y-13759404D01*
X14148667Y-13759404D02*
X14315333Y-13045119D01*
X14315333Y-13045119D02*
X14315333Y-14045119D01*
X14791524Y-14045119D02*
X14553429Y-14045119D01*
X14553429Y-14045119D02*
X14553429Y-13045119D01*
X15172477Y-13045119D02*
X15077239Y-13045119D01*
X15077239Y-13045119D02*
X15029620Y-13092738D01*
X15029620Y-13092738D02*
X15005810Y-13140357D01*
X15005810Y-13140357D02*
X14958191Y-13283214D01*
X14958191Y-13283214D02*
X14934382Y-13473690D01*
X14934382Y-13473690D02*
X14934382Y-13854642D01*
X14934382Y-13854642D02*
X14958191Y-13949880D01*
X14958191Y-13949880D02*
X14982001Y-13997500D01*
X14982001Y-13997500D02*
X15029620Y-14045119D01*
X15029620Y-14045119D02*
X15124858Y-14045119D01*
X15124858Y-14045119D02*
X15172477Y-13997500D01*
X15172477Y-13997500D02*
X15196286Y-13949880D01*
X15196286Y-13949880D02*
X15220096Y-13854642D01*
X15220096Y-13854642D02*
X15220096Y-13616547D01*
X15220096Y-13616547D02*
X15196286Y-13521309D01*
X15196286Y-13521309D02*
X15172477Y-13473690D01*
X15172477Y-13473690D02*
X15124858Y-13426071D01*
X15124858Y-13426071D02*
X15029620Y-13426071D01*
X15029620Y-13426071D02*
X14982001Y-13473690D01*
X14982001Y-13473690D02*
X14958191Y-13521309D01*
X14958191Y-13521309D02*
X14934382Y-13616547D01*
X15648667Y-13378452D02*
X15648667Y-14045119D01*
X15529619Y-12997500D02*
X15410572Y-13711785D01*
X15410572Y-13711785D02*
X15720095Y-13711785D01*
X16005809Y-13045119D02*
X16053428Y-13045119D01*
X16053428Y-13045119D02*
X16101047Y-13092738D01*
X16101047Y-13092738D02*
X16124857Y-13140357D01*
X16124857Y-13140357D02*
X16148666Y-13235595D01*
X16148666Y-13235595D02*
X16172476Y-13426071D01*
X16172476Y-13426071D02*
X16172476Y-13664166D01*
X16172476Y-13664166D02*
X16148666Y-13854642D01*
X16148666Y-13854642D02*
X16124857Y-13949880D01*
X16124857Y-13949880D02*
X16101047Y-13997500D01*
X16101047Y-13997500D02*
X16053428Y-14045119D01*
X16053428Y-14045119D02*
X16005809Y-14045119D01*
X16005809Y-14045119D02*
X15958190Y-13997500D01*
X15958190Y-13997500D02*
X15934381Y-13949880D01*
X15934381Y-13949880D02*
X15910571Y-13854642D01*
X15910571Y-13854642D02*
X15886762Y-13664166D01*
X15886762Y-13664166D02*
X15886762Y-13426071D01*
X15886762Y-13426071D02*
X15910571Y-13235595D01*
X15910571Y-13235595D02*
X15934381Y-13140357D01*
X15934381Y-13140357D02*
X15958190Y-13092738D01*
X15958190Y-13092738D02*
X16005809Y-13045119D01*
X16362952Y-13140357D02*
X16386761Y-13092738D01*
X16386761Y-13092738D02*
X16434380Y-13045119D01*
X16434380Y-13045119D02*
X16553428Y-13045119D01*
X16553428Y-13045119D02*
X16601047Y-13092738D01*
X16601047Y-13092738D02*
X16624856Y-13140357D01*
X16624856Y-13140357D02*
X16648666Y-13235595D01*
X16648666Y-13235595D02*
X16648666Y-13330833D01*
X16648666Y-13330833D02*
X16624856Y-13473690D01*
X16624856Y-13473690D02*
X16339142Y-14045119D01*
X16339142Y-14045119D02*
X16648666Y-14045119D01*
X2148559Y-7433428D02*
X2148559Y-7671523D01*
X2148559Y-7671523D02*
X1648559Y-7671523D01*
X1886654Y-7266761D02*
X1886654Y-7100094D01*
X2148559Y-7028666D02*
X2148559Y-7266761D01*
X2148559Y-7266761D02*
X1648559Y-7266761D01*
X1648559Y-7266761D02*
X1648559Y-7028666D01*
X2148559Y-6814380D02*
X1648559Y-6814380D01*
X1648559Y-6814380D02*
X1648559Y-6695332D01*
X1648559Y-6695332D02*
X1672369Y-6623904D01*
X1672369Y-6623904D02*
X1719988Y-6576285D01*
X1719988Y-6576285D02*
X1767607Y-6552475D01*
X1767607Y-6552475D02*
X1862845Y-6528666D01*
X1862845Y-6528666D02*
X1934273Y-6528666D01*
X1934273Y-6528666D02*
X2029511Y-6552475D01*
X2029511Y-6552475D02*
X2077130Y-6576285D01*
X2077130Y-6576285D02*
X2124750Y-6623904D01*
X2124750Y-6623904D02*
X2148559Y-6695332D01*
X2148559Y-6695332D02*
X2148559Y-6814380D01*
D11*
X11255656Y-4331619D02*
X11255656Y-5141142D01*
X11255656Y-5141142D02*
X11303275Y-5236380D01*
X11303275Y-5236380D02*
X11350894Y-5284000D01*
X11350894Y-5284000D02*
X11446132Y-5331619D01*
X11446132Y-5331619D02*
X11636608Y-5331619D01*
X11636608Y-5331619D02*
X11731846Y-5284000D01*
X11731846Y-5284000D02*
X11779465Y-5236380D01*
X11779465Y-5236380D02*
X11827084Y-5141142D01*
X11827084Y-5141142D02*
X11827084Y-4331619D01*
X12208037Y-4331619D02*
X12827084Y-4331619D01*
X12827084Y-4331619D02*
X12493751Y-4712571D01*
X12493751Y-4712571D02*
X12636608Y-4712571D01*
X12636608Y-4712571D02*
X12731846Y-4760190D01*
X12731846Y-4760190D02*
X12779465Y-4807809D01*
X12779465Y-4807809D02*
X12827084Y-4903047D01*
X12827084Y-4903047D02*
X12827084Y-5141142D01*
X12827084Y-5141142D02*
X12779465Y-5236380D01*
X12779465Y-5236380D02*
X12731846Y-5284000D01*
X12731846Y-5284000D02*
X12636608Y-5331619D01*
X12636608Y-5331619D02*
X12350894Y-5331619D01*
X12350894Y-5331619D02*
X12255656Y-5284000D01*
X12255656Y-5284000D02*
X12208037Y-5236380D01*
X6822560Y-10122819D02*
X6822560Y-10360914D01*
X6584465Y-10265676D02*
X6822560Y-10360914D01*
X6822560Y-10360914D02*
X7060655Y-10265676D01*
X6679703Y-10551390D02*
X6822560Y-10360914D01*
X6822560Y-10360914D02*
X6965417Y-10551390D01*
X6822560Y-10122819D02*
X6822560Y-10360914D01*
X6584465Y-10265676D02*
X6822560Y-10360914D01*
X6822560Y-10360914D02*
X7060655Y-10265676D01*
X6679703Y-10551390D02*
X6822560Y-10360914D01*
X6822560Y-10360914D02*
X6965417Y-10551390D01*
X24400999Y-5153819D02*
X24400999Y-4153819D01*
X25134332Y-5153819D02*
X24900999Y-4677628D01*
X24734332Y-5153819D02*
X24734332Y-4153819D01*
X24734332Y-4153819D02*
X25000999Y-4153819D01*
X25000999Y-4153819D02*
X25067666Y-4201438D01*
X25067666Y-4201438D02*
X25100999Y-4249057D01*
X25100999Y-4249057D02*
X25134332Y-4344295D01*
X25134332Y-4344295D02*
X25134332Y-4487152D01*
X25134332Y-4487152D02*
X25100999Y-4582390D01*
X25100999Y-4582390D02*
X25067666Y-4630009D01*
X25067666Y-4630009D02*
X25000999Y-4677628D01*
X25000999Y-4677628D02*
X24734332Y-4677628D01*
X25767666Y-5153819D02*
X25434332Y-5153819D01*
X25434332Y-5153819D02*
X25434332Y-4153819D01*
X26000999Y-5153819D02*
X26000999Y-4153819D01*
X26000999Y-4153819D02*
X26234333Y-4868104D01*
X26234333Y-4868104D02*
X26467666Y-4153819D01*
X26467666Y-4153819D02*
X26467666Y-5153819D01*
X27134333Y-5153819D02*
X26800999Y-5153819D01*
X26800999Y-5153819D02*
X26800999Y-4153819D01*
X27667666Y-4153819D02*
X27534333Y-4153819D01*
X27534333Y-4153819D02*
X27467666Y-4201438D01*
X27467666Y-4201438D02*
X27434333Y-4249057D01*
X27434333Y-4249057D02*
X27367666Y-4391914D01*
X27367666Y-4391914D02*
X27334333Y-4582390D01*
X27334333Y-4582390D02*
X27334333Y-4963342D01*
X27334333Y-4963342D02*
X27367666Y-5058580D01*
X27367666Y-5058580D02*
X27401000Y-5106200D01*
X27401000Y-5106200D02*
X27467666Y-5153819D01*
X27467666Y-5153819D02*
X27601000Y-5153819D01*
X27601000Y-5153819D02*
X27667666Y-5106200D01*
X27667666Y-5106200D02*
X27701000Y-5058580D01*
X27701000Y-5058580D02*
X27734333Y-4963342D01*
X27734333Y-4963342D02*
X27734333Y-4725247D01*
X27734333Y-4725247D02*
X27701000Y-4630009D01*
X27701000Y-4630009D02*
X27667666Y-4582390D01*
X27667666Y-4582390D02*
X27601000Y-4534771D01*
X27601000Y-4534771D02*
X27467666Y-4534771D01*
X27467666Y-4534771D02*
X27401000Y-4582390D01*
X27401000Y-4582390D02*
X27367666Y-4630009D01*
X27367666Y-4630009D02*
X27334333Y-4725247D01*
X27967667Y-4153819D02*
X28401000Y-4153819D01*
X28401000Y-4153819D02*
X28167667Y-4534771D01*
X28167667Y-4534771D02*
X28267667Y-4534771D01*
X28267667Y-4534771D02*
X28334333Y-4582390D01*
X28334333Y-4582390D02*
X28367667Y-4630009D01*
X28367667Y-4630009D02*
X28401000Y-4725247D01*
X28401000Y-4725247D02*
X28401000Y-4963342D01*
X28401000Y-4963342D02*
X28367667Y-5058580D01*
X28367667Y-5058580D02*
X28334333Y-5106200D01*
X28334333Y-5106200D02*
X28267667Y-5153819D01*
X28267667Y-5153819D02*
X28067667Y-5153819D01*
X28067667Y-5153819D02*
X28001000Y-5106200D01*
X28001000Y-5106200D02*
X27967667Y-5058580D01*
X29001000Y-4487152D02*
X29001000Y-5153819D01*
X28834334Y-4106200D02*
X28667667Y-4820485D01*
X28667667Y-4820485D02*
X29101000Y-4820485D01*
X29667667Y-4487152D02*
X29667667Y-5153819D01*
X29501001Y-4106200D02*
X29334334Y-4820485D01*
X29334334Y-4820485D02*
X29767667Y-4820485D01*
X18494656Y-4331619D02*
X18494656Y-5141142D01*
X18494656Y-5141142D02*
X18542275Y-5236380D01*
X18542275Y-5236380D02*
X18589894Y-5284000D01*
X18589894Y-5284000D02*
X18685132Y-5331619D01*
X18685132Y-5331619D02*
X18875608Y-5331619D01*
X18875608Y-5331619D02*
X18970846Y-5284000D01*
X18970846Y-5284000D02*
X19018465Y-5236380D01*
X19018465Y-5236380D02*
X19066084Y-5141142D01*
X19066084Y-5141142D02*
X19066084Y-4331619D01*
X19494656Y-4426857D02*
X19542275Y-4379238D01*
X19542275Y-4379238D02*
X19637513Y-4331619D01*
X19637513Y-4331619D02*
X19875608Y-4331619D01*
X19875608Y-4331619D02*
X19970846Y-4379238D01*
X19970846Y-4379238D02*
X20018465Y-4426857D01*
X20018465Y-4426857D02*
X20066084Y-4522095D01*
X20066084Y-4522095D02*
X20066084Y-4617333D01*
X20066084Y-4617333D02*
X20018465Y-4760190D01*
X20018465Y-4760190D02*
X19447037Y-5331619D01*
X19447037Y-5331619D02*
X20066084Y-5331619D01*
X14061560Y-10122819D02*
X14061560Y-10360914D01*
X13823465Y-10265676D02*
X14061560Y-10360914D01*
X14061560Y-10360914D02*
X14299655Y-10265676D01*
X13918703Y-10551390D02*
X14061560Y-10360914D01*
X14061560Y-10360914D02*
X14204417Y-10551390D01*
X14061560Y-10122819D02*
X14061560Y-10360914D01*
X13823465Y-10265676D02*
X14061560Y-10360914D01*
X14061560Y-10360914D02*
X14299655Y-10265676D01*
X13918703Y-10551390D02*
X14061560Y-10360914D01*
X14061560Y-10360914D02*
X14204417Y-10551390D01*
D10*
X15553381Y-44801809D02*
X15267667Y-44801809D01*
X15410524Y-44801809D02*
X15410524Y-44301809D01*
X15410524Y-44301809D02*
X15362905Y-44373238D01*
X15362905Y-44373238D02*
X15315286Y-44420857D01*
X15315286Y-44420857D02*
X15267667Y-44444666D01*
X15862904Y-44301809D02*
X15910523Y-44301809D01*
X15910523Y-44301809D02*
X15958142Y-44325619D01*
X15958142Y-44325619D02*
X15981952Y-44349428D01*
X15981952Y-44349428D02*
X16005761Y-44397047D01*
X16005761Y-44397047D02*
X16029571Y-44492285D01*
X16029571Y-44492285D02*
X16029571Y-44611333D01*
X16029571Y-44611333D02*
X16005761Y-44706571D01*
X16005761Y-44706571D02*
X15981952Y-44754190D01*
X15981952Y-44754190D02*
X15958142Y-44778000D01*
X15958142Y-44778000D02*
X15910523Y-44801809D01*
X15910523Y-44801809D02*
X15862904Y-44801809D01*
X15862904Y-44801809D02*
X15815285Y-44778000D01*
X15815285Y-44778000D02*
X15791476Y-44754190D01*
X15791476Y-44754190D02*
X15767666Y-44706571D01*
X15767666Y-44706571D02*
X15743857Y-44611333D01*
X15743857Y-44611333D02*
X15743857Y-44492285D01*
X15743857Y-44492285D02*
X15767666Y-44397047D01*
X15767666Y-44397047D02*
X15791476Y-44349428D01*
X15791476Y-44349428D02*
X15815285Y-44325619D01*
X15815285Y-44325619D02*
X15862904Y-44301809D01*
X16243856Y-44801809D02*
X16243856Y-44301809D01*
X16291475Y-44611333D02*
X16434332Y-44801809D01*
X16434332Y-44468476D02*
X16243856Y-44658952D01*
D11*
X8168333Y-45234580D02*
X8120714Y-45282200D01*
X8120714Y-45282200D02*
X7977857Y-45329819D01*
X7977857Y-45329819D02*
X7882619Y-45329819D01*
X7882619Y-45329819D02*
X7739762Y-45282200D01*
X7739762Y-45282200D02*
X7644524Y-45186961D01*
X7644524Y-45186961D02*
X7596905Y-45091723D01*
X7596905Y-45091723D02*
X7549286Y-44901247D01*
X7549286Y-44901247D02*
X7549286Y-44758390D01*
X7549286Y-44758390D02*
X7596905Y-44567914D01*
X7596905Y-44567914D02*
X7644524Y-44472676D01*
X7644524Y-44472676D02*
X7739762Y-44377438D01*
X7739762Y-44377438D02*
X7882619Y-44329819D01*
X7882619Y-44329819D02*
X7977857Y-44329819D01*
X7977857Y-44329819D02*
X8120714Y-44377438D01*
X8120714Y-44377438D02*
X8168333Y-44425057D01*
X9120714Y-45329819D02*
X8549286Y-45329819D01*
X8835000Y-45329819D02*
X8835000Y-44329819D01*
X8835000Y-44329819D02*
X8739762Y-44472676D01*
X8739762Y-44472676D02*
X8644524Y-44567914D01*
X8644524Y-44567914D02*
X8549286Y-44615533D01*
X11107009Y-30445667D02*
X11154628Y-30345667D01*
X11154628Y-30345667D02*
X11202247Y-30312333D01*
X11202247Y-30312333D02*
X11297485Y-30279000D01*
X11297485Y-30279000D02*
X11440342Y-30279000D01*
X11440342Y-30279000D02*
X11535580Y-30312333D01*
X11535580Y-30312333D02*
X11583200Y-30345667D01*
X11583200Y-30345667D02*
X11630819Y-30412333D01*
X11630819Y-30412333D02*
X11630819Y-30679000D01*
X11630819Y-30679000D02*
X10630819Y-30679000D01*
X10630819Y-30679000D02*
X10630819Y-30445667D01*
X10630819Y-30445667D02*
X10678438Y-30379000D01*
X10678438Y-30379000D02*
X10726057Y-30345667D01*
X10726057Y-30345667D02*
X10821295Y-30312333D01*
X10821295Y-30312333D02*
X10916533Y-30312333D01*
X10916533Y-30312333D02*
X11011771Y-30345667D01*
X11011771Y-30345667D02*
X11059390Y-30379000D01*
X11059390Y-30379000D02*
X11107009Y-30445667D01*
X11107009Y-30445667D02*
X11107009Y-30679000D01*
X11583200Y-30012333D02*
X11630819Y-29912333D01*
X11630819Y-29912333D02*
X11630819Y-29745667D01*
X11630819Y-29745667D02*
X11583200Y-29679000D01*
X11583200Y-29679000D02*
X11535580Y-29645667D01*
X11535580Y-29645667D02*
X11440342Y-29612333D01*
X11440342Y-29612333D02*
X11345104Y-29612333D01*
X11345104Y-29612333D02*
X11249866Y-29645667D01*
X11249866Y-29645667D02*
X11202247Y-29679000D01*
X11202247Y-29679000D02*
X11154628Y-29745667D01*
X11154628Y-29745667D02*
X11107009Y-29879000D01*
X11107009Y-29879000D02*
X11059390Y-29945667D01*
X11059390Y-29945667D02*
X11011771Y-29979000D01*
X11011771Y-29979000D02*
X10916533Y-30012333D01*
X10916533Y-30012333D02*
X10821295Y-30012333D01*
X10821295Y-30012333D02*
X10726057Y-29979000D01*
X10726057Y-29979000D02*
X10678438Y-29945667D01*
X10678438Y-29945667D02*
X10630819Y-29879000D01*
X10630819Y-29879000D02*
X10630819Y-29712333D01*
X10630819Y-29712333D02*
X10678438Y-29612333D01*
X11583200Y-29345666D02*
X11630819Y-29245666D01*
X11630819Y-29245666D02*
X11630819Y-29079000D01*
X11630819Y-29079000D02*
X11583200Y-29012333D01*
X11583200Y-29012333D02*
X11535580Y-28979000D01*
X11535580Y-28979000D02*
X11440342Y-28945666D01*
X11440342Y-28945666D02*
X11345104Y-28945666D01*
X11345104Y-28945666D02*
X11249866Y-28979000D01*
X11249866Y-28979000D02*
X11202247Y-29012333D01*
X11202247Y-29012333D02*
X11154628Y-29079000D01*
X11154628Y-29079000D02*
X11107009Y-29212333D01*
X11107009Y-29212333D02*
X11059390Y-29279000D01*
X11059390Y-29279000D02*
X11011771Y-29312333D01*
X11011771Y-29312333D02*
X10916533Y-29345666D01*
X10916533Y-29345666D02*
X10821295Y-29345666D01*
X10821295Y-29345666D02*
X10726057Y-29312333D01*
X10726057Y-29312333D02*
X10678438Y-29279000D01*
X10678438Y-29279000D02*
X10630819Y-29212333D01*
X10630819Y-29212333D02*
X10630819Y-29045666D01*
X10630819Y-29045666D02*
X10678438Y-28945666D01*
X11630819Y-28278999D02*
X11630819Y-28678999D01*
X11630819Y-28478999D02*
X10630819Y-28478999D01*
X10630819Y-28478999D02*
X10773676Y-28545666D01*
X10773676Y-28545666D02*
X10868914Y-28612333D01*
X10868914Y-28612333D02*
X10916533Y-28678999D01*
X10630819Y-28045666D02*
X10630819Y-27612332D01*
X10630819Y-27612332D02*
X11011771Y-27845666D01*
X11011771Y-27845666D02*
X11011771Y-27745666D01*
X11011771Y-27745666D02*
X11059390Y-27678999D01*
X11059390Y-27678999D02*
X11107009Y-27645666D01*
X11107009Y-27645666D02*
X11202247Y-27612332D01*
X11202247Y-27612332D02*
X11440342Y-27612332D01*
X11440342Y-27612332D02*
X11535580Y-27645666D01*
X11535580Y-27645666D02*
X11583200Y-27678999D01*
X11583200Y-27678999D02*
X11630819Y-27745666D01*
X11630819Y-27745666D02*
X11630819Y-27945666D01*
X11630819Y-27945666D02*
X11583200Y-28012332D01*
X11583200Y-28012332D02*
X11535580Y-28045666D01*
X11059390Y-27212332D02*
X11011771Y-27278999D01*
X11011771Y-27278999D02*
X10964152Y-27312332D01*
X10964152Y-27312332D02*
X10868914Y-27345665D01*
X10868914Y-27345665D02*
X10821295Y-27345665D01*
X10821295Y-27345665D02*
X10726057Y-27312332D01*
X10726057Y-27312332D02*
X10678438Y-27278999D01*
X10678438Y-27278999D02*
X10630819Y-27212332D01*
X10630819Y-27212332D02*
X10630819Y-27078999D01*
X10630819Y-27078999D02*
X10678438Y-27012332D01*
X10678438Y-27012332D02*
X10726057Y-26978999D01*
X10726057Y-26978999D02*
X10821295Y-26945665D01*
X10821295Y-26945665D02*
X10868914Y-26945665D01*
X10868914Y-26945665D02*
X10964152Y-26978999D01*
X10964152Y-26978999D02*
X11011771Y-27012332D01*
X11011771Y-27012332D02*
X11059390Y-27078999D01*
X11059390Y-27078999D02*
X11059390Y-27212332D01*
X11059390Y-27212332D02*
X11107009Y-27278999D01*
X11107009Y-27278999D02*
X11154628Y-27312332D01*
X11154628Y-27312332D02*
X11249866Y-27345665D01*
X11249866Y-27345665D02*
X11440342Y-27345665D01*
X11440342Y-27345665D02*
X11535580Y-27312332D01*
X11535580Y-27312332D02*
X11583200Y-27278999D01*
X11583200Y-27278999D02*
X11630819Y-27212332D01*
X11630819Y-27212332D02*
X11630819Y-27078999D01*
X11630819Y-27078999D02*
X11583200Y-27012332D01*
X11583200Y-27012332D02*
X11535580Y-26978999D01*
X11535580Y-26978999D02*
X11440342Y-26945665D01*
X11440342Y-26945665D02*
X11249866Y-26945665D01*
X11249866Y-26945665D02*
X11154628Y-26978999D01*
X11154628Y-26978999D02*
X11107009Y-27012332D01*
X11107009Y-27012332D02*
X11059390Y-27078999D01*
D10*
X2206667Y-44928809D02*
X1920953Y-44928809D01*
X2063810Y-44928809D02*
X2063810Y-44428809D01*
X2063810Y-44428809D02*
X2016191Y-44500238D01*
X2016191Y-44500238D02*
X1968572Y-44547857D01*
X1968572Y-44547857D02*
X1920953Y-44571666D01*
X2516190Y-44428809D02*
X2563809Y-44428809D01*
X2563809Y-44428809D02*
X2611428Y-44452619D01*
X2611428Y-44452619D02*
X2635238Y-44476428D01*
X2635238Y-44476428D02*
X2659047Y-44524047D01*
X2659047Y-44524047D02*
X2682857Y-44619285D01*
X2682857Y-44619285D02*
X2682857Y-44738333D01*
X2682857Y-44738333D02*
X2659047Y-44833571D01*
X2659047Y-44833571D02*
X2635238Y-44881190D01*
X2635238Y-44881190D02*
X2611428Y-44905000D01*
X2611428Y-44905000D02*
X2563809Y-44928809D01*
X2563809Y-44928809D02*
X2516190Y-44928809D01*
X2516190Y-44928809D02*
X2468571Y-44905000D01*
X2468571Y-44905000D02*
X2444762Y-44881190D01*
X2444762Y-44881190D02*
X2420952Y-44833571D01*
X2420952Y-44833571D02*
X2397143Y-44738333D01*
X2397143Y-44738333D02*
X2397143Y-44619285D01*
X2397143Y-44619285D02*
X2420952Y-44524047D01*
X2420952Y-44524047D02*
X2444762Y-44476428D01*
X2444762Y-44476428D02*
X2468571Y-44452619D01*
X2468571Y-44452619D02*
X2516190Y-44428809D01*
X2992380Y-44428809D02*
X3039999Y-44428809D01*
X3039999Y-44428809D02*
X3087618Y-44452619D01*
X3087618Y-44452619D02*
X3111428Y-44476428D01*
X3111428Y-44476428D02*
X3135237Y-44524047D01*
X3135237Y-44524047D02*
X3159047Y-44619285D01*
X3159047Y-44619285D02*
X3159047Y-44738333D01*
X3159047Y-44738333D02*
X3135237Y-44833571D01*
X3135237Y-44833571D02*
X3111428Y-44881190D01*
X3111428Y-44881190D02*
X3087618Y-44905000D01*
X3087618Y-44905000D02*
X3039999Y-44928809D01*
X3039999Y-44928809D02*
X2992380Y-44928809D01*
X2992380Y-44928809D02*
X2944761Y-44905000D01*
X2944761Y-44905000D02*
X2920952Y-44881190D01*
X2920952Y-44881190D02*
X2897142Y-44833571D01*
X2897142Y-44833571D02*
X2873333Y-44738333D01*
X2873333Y-44738333D02*
X2873333Y-44619285D01*
X2873333Y-44619285D02*
X2897142Y-44524047D01*
X2897142Y-44524047D02*
X2920952Y-44476428D01*
X2920952Y-44476428D02*
X2944761Y-44452619D01*
X2944761Y-44452619D02*
X2992380Y-44428809D01*
D11*
X29411133Y-45240580D02*
X29363514Y-45288200D01*
X29363514Y-45288200D02*
X29220657Y-45335819D01*
X29220657Y-45335819D02*
X29125419Y-45335819D01*
X29125419Y-45335819D02*
X28982562Y-45288200D01*
X28982562Y-45288200D02*
X28887324Y-45192961D01*
X28887324Y-45192961D02*
X28839705Y-45097723D01*
X28839705Y-45097723D02*
X28792086Y-44907247D01*
X28792086Y-44907247D02*
X28792086Y-44764390D01*
X28792086Y-44764390D02*
X28839705Y-44573914D01*
X28839705Y-44573914D02*
X28887324Y-44478676D01*
X28887324Y-44478676D02*
X28982562Y-44383438D01*
X28982562Y-44383438D02*
X29125419Y-44335819D01*
X29125419Y-44335819D02*
X29220657Y-44335819D01*
X29220657Y-44335819D02*
X29363514Y-44383438D01*
X29363514Y-44383438D02*
X29411133Y-44431057D01*
X29744467Y-44335819D02*
X30363514Y-44335819D01*
X30363514Y-44335819D02*
X30030181Y-44716771D01*
X30030181Y-44716771D02*
X30173038Y-44716771D01*
X30173038Y-44716771D02*
X30268276Y-44764390D01*
X30268276Y-44764390D02*
X30315895Y-44812009D01*
X30315895Y-44812009D02*
X30363514Y-44907247D01*
X30363514Y-44907247D02*
X30363514Y-45145342D01*
X30363514Y-45145342D02*
X30315895Y-45240580D01*
X30315895Y-45240580D02*
X30268276Y-45288200D01*
X30268276Y-45288200D02*
X30173038Y-45335819D01*
X30173038Y-45335819D02*
X29887324Y-45335819D01*
X29887324Y-45335819D02*
X29792086Y-45288200D01*
X29792086Y-45288200D02*
X29744467Y-45240580D01*
X18682333Y-45240580D02*
X18634714Y-45288200D01*
X18634714Y-45288200D02*
X18491857Y-45335819D01*
X18491857Y-45335819D02*
X18396619Y-45335819D01*
X18396619Y-45335819D02*
X18253762Y-45288200D01*
X18253762Y-45288200D02*
X18158524Y-45192961D01*
X18158524Y-45192961D02*
X18110905Y-45097723D01*
X18110905Y-45097723D02*
X18063286Y-44907247D01*
X18063286Y-44907247D02*
X18063286Y-44764390D01*
X18063286Y-44764390D02*
X18110905Y-44573914D01*
X18110905Y-44573914D02*
X18158524Y-44478676D01*
X18158524Y-44478676D02*
X18253762Y-44383438D01*
X18253762Y-44383438D02*
X18396619Y-44335819D01*
X18396619Y-44335819D02*
X18491857Y-44335819D01*
X18491857Y-44335819D02*
X18634714Y-44383438D01*
X18634714Y-44383438D02*
X18682333Y-44431057D01*
X19063286Y-44431057D02*
X19110905Y-44383438D01*
X19110905Y-44383438D02*
X19206143Y-44335819D01*
X19206143Y-44335819D02*
X19444238Y-44335819D01*
X19444238Y-44335819D02*
X19539476Y-44383438D01*
X19539476Y-44383438D02*
X19587095Y-44431057D01*
X19587095Y-44431057D02*
X19634714Y-44526295D01*
X19634714Y-44526295D02*
X19634714Y-44621533D01*
X19634714Y-44621533D02*
X19587095Y-44764390D01*
X19587095Y-44764390D02*
X19015667Y-45335819D01*
X19015667Y-45335819D02*
X19634714Y-45335819D01*
D12*
%TO.C,Q1*%
X9736000Y-23552250D02*
X9256000Y-23552250D01*
X9496000Y-23222250D01*
X9736000Y-23552250D01*
G36*
X9736000Y-23552250D02*
G01*
X9256000Y-23552250D01*
X9496000Y-23222250D01*
X9736000Y-23552250D01*
G37*
X8333500Y-23272250D02*
X8983500Y-23272250D01*
X8333500Y-23272250D02*
X7683500Y-23272250D01*
X8333500Y-20152250D02*
X8983500Y-20152250D01*
X8333500Y-20152250D02*
X7683500Y-20152250D01*
%TO.C,R9*%
X8157242Y-24647750D02*
X8631758Y-24647750D01*
X8157242Y-23602750D02*
X8631758Y-23602750D01*
%TO.C,R8*%
X8570758Y-19948750D02*
X8096242Y-19948750D01*
X8570758Y-18903750D02*
X8096242Y-18903750D01*
%TO.C,R7*%
X8633758Y-26044750D02*
X8159242Y-26044750D01*
X8633758Y-24999750D02*
X8159242Y-24999750D01*
%TO.C,J7*%
X298000Y-35763000D02*
X298000Y-37013000D01*
X298000Y-37013000D02*
X1548000Y-37013000D01*
X588000Y-26603000D02*
X588000Y-36723000D01*
X588000Y-36723000D02*
X6558000Y-36723000D01*
X598000Y-26613000D02*
X598000Y-28413000D01*
X598000Y-28413000D02*
X1348000Y-28413000D01*
X598000Y-29913000D02*
X598000Y-33413000D01*
X598000Y-33413000D02*
X1348000Y-33413000D01*
X598000Y-34913000D02*
X598000Y-36713000D01*
X598000Y-36713000D02*
X1348000Y-36713000D01*
X1348000Y-26613000D02*
X598000Y-26613000D01*
X1348000Y-28413000D02*
X1348000Y-26613000D01*
X1348000Y-29913000D02*
X598000Y-29913000D01*
X1348000Y-33413000D02*
X1348000Y-29913000D01*
X1348000Y-34913000D02*
X598000Y-34913000D01*
X1348000Y-36713000D02*
X1348000Y-34913000D01*
X2848000Y-26613000D02*
X2848000Y-27363000D01*
X2848000Y-27363000D02*
X5798000Y-27363000D01*
X2848000Y-35963000D02*
X5798000Y-35963000D01*
X2848000Y-36713000D02*
X2848000Y-35963000D01*
X5798000Y-27363000D02*
X5798000Y-31663000D01*
X5798000Y-35963000D02*
X5798000Y-31663000D01*
X6558000Y-26603000D02*
X588000Y-26603000D01*
X6558000Y-36723000D02*
X6558000Y-26603000D01*
%TO.C,R11*%
X25287500Y-11002242D02*
X25287500Y-11476758D01*
X24242500Y-11002242D02*
X24242500Y-11476758D01*
%TO.C,D2*%
X23131500Y-7922000D02*
X26371500Y-7922000D01*
X23131500Y-6302000D02*
X26371500Y-6302000D01*
X23131500Y-6302000D02*
X23131500Y-7922000D01*
%TO.C,C10*%
X8760000Y-17341000D02*
X6010000Y-17341000D01*
X8760000Y-9885437D02*
X8760000Y-17341000D01*
X7695563Y-8821000D02*
X8760000Y-9885437D01*
X7695563Y-8821000D02*
X6010000Y-8821000D01*
X7510000Y-8081000D02*
X6510000Y-8081000D01*
X7010000Y-7581000D02*
X7010000Y-8581000D01*
X1304437Y-8821000D02*
X2990000Y-8821000D01*
X1304437Y-8821000D02*
X240000Y-9885437D01*
X240000Y-17341000D02*
X2990000Y-17341000D01*
X240000Y-9885437D02*
X240000Y-17341000D01*
%TO.C,C7*%
X24884748Y-9625000D02*
X25407252Y-9625000D01*
X24884748Y-8155000D02*
X25407252Y-8155000D01*
%TO.C,J2*%
X8255000Y-6160000D02*
X8255000Y-190000D01*
X8255000Y-190000D02*
X635000Y-190000D01*
X8245000Y-2450000D02*
X7495000Y-2450000D01*
X8245000Y-950000D02*
X8245000Y-200000D01*
X8245000Y-200000D02*
X6445000Y-200000D01*
X7495000Y-5400000D02*
X4445000Y-5400000D01*
X7495000Y-2450000D02*
X7495000Y-5400000D01*
X6445000Y-950000D02*
X8245000Y-950000D01*
X6445000Y-200000D02*
X6445000Y-950000D01*
X4945000Y-950000D02*
X4945000Y-200000D01*
X4945000Y-200000D02*
X3945000Y-200000D01*
X3945000Y-950000D02*
X4945000Y-950000D01*
X3945000Y-200000D02*
X3945000Y-950000D01*
X2445000Y-950000D02*
X2445000Y-200000D01*
X2445000Y-200000D02*
X645000Y-200000D01*
X1595000Y100000D02*
X345000Y100000D01*
X1395000Y-5400000D02*
X4445000Y-5400000D01*
X1395000Y-2450000D02*
X1395000Y-5400000D01*
X645000Y-2450000D02*
X1395000Y-2450000D01*
X645000Y-950000D02*
X2445000Y-950000D01*
X645000Y-200000D02*
X645000Y-950000D01*
X635000Y-6160000D02*
X8255000Y-6160000D01*
X635000Y-190000D02*
X635000Y-6160000D01*
X345000Y100000D02*
X345000Y-1150000D01*
%TO.C,R20*%
X4480492Y-7634500D02*
X4955008Y-7634500D01*
X4480492Y-6589500D02*
X4955008Y-6589500D01*
%TO.C,Q4*%
X12070500Y-15175000D02*
X11590500Y-15175000D01*
X11830500Y-14845000D01*
X12070500Y-15175000D01*
G36*
X12070500Y-15175000D02*
G01*
X11590500Y-15175000D01*
X11830500Y-14845000D01*
X12070500Y-15175000D01*
G37*
X10668000Y-11775000D02*
X11318000Y-11775000D01*
X10668000Y-11775000D02*
X10018000Y-11775000D01*
X10668000Y-14895000D02*
X11318000Y-14895000D01*
X10668000Y-14895000D02*
X10018000Y-14895000D01*
%TO.C,D3*%
X2723750Y-6377000D02*
X438750Y-6377000D01*
X438750Y-7847000D02*
X2723750Y-7847000D01*
X438750Y-6377000D02*
X438750Y-7847000D01*
%TO.C,C5*%
X13289561Y-10173580D02*
X13289561Y-9892420D01*
X12269561Y-10173580D02*
X12269561Y-9892420D01*
%TO.C,D1*%
X22215000Y-13383000D02*
X18975000Y-13383000D01*
X22215000Y-13383000D02*
X22215000Y-11763000D01*
X22215000Y-11763000D02*
X18975000Y-11763000D01*
%TO.C,R15*%
X17193314Y-13870000D02*
X16739186Y-13870000D01*
X17193314Y-15340000D02*
X16739186Y-15340000D01*
%TO.C,J6*%
X31310000Y-6033000D02*
X31310000Y-63000D01*
X31310000Y-63000D02*
X23690000Y-63000D01*
X31300000Y-2323000D02*
X30550000Y-2323000D01*
X31300000Y-823000D02*
X31300000Y-73000D01*
X31300000Y-73000D02*
X29500000Y-73000D01*
X30550000Y-5273000D02*
X27500000Y-5273000D01*
X30550000Y-2323000D02*
X30550000Y-5273000D01*
X29500000Y-823000D02*
X31300000Y-823000D01*
X29500000Y-73000D02*
X29500000Y-823000D01*
X28000000Y-823000D02*
X28000000Y-73000D01*
X28000000Y-73000D02*
X27000000Y-73000D01*
X27000000Y-823000D02*
X28000000Y-823000D01*
X27000000Y-73000D02*
X27000000Y-823000D01*
X25500000Y-823000D02*
X25500000Y-73000D01*
X25500000Y-73000D02*
X23700000Y-73000D01*
X24650000Y227000D02*
X23400000Y227000D01*
X24450000Y-5273000D02*
X27500000Y-5273000D01*
X24450000Y-2323000D02*
X24450000Y-5273000D01*
X23700000Y-2323000D02*
X24450000Y-2323000D01*
X23700000Y-823000D02*
X25500000Y-823000D01*
X23700000Y-73000D02*
X23700000Y-823000D01*
X23690000Y-6033000D02*
X31310000Y-6033000D01*
X23690000Y-63000D02*
X23690000Y-6033000D01*
X23400000Y227000D02*
X23400000Y-1023000D01*
D13*
%TO.C,U3*%
X15510061Y-8051800D02*
X15510061Y-1701800D01*
X15510061Y-1701800D02*
X15106201Y-1701800D01*
X14742062Y-8534400D02*
X14742062Y-9702800D01*
X13853062Y-8534400D02*
X13853062Y-9702800D01*
X12589061Y-9067800D02*
X12589061Y-8051800D01*
X12589061Y-8051800D02*
X15510061Y-8051800D01*
X11446061Y-9067800D02*
X12589061Y-9067800D01*
X11446061Y-8051800D02*
X11446061Y-9067800D01*
X10182060Y-8534400D02*
X10182060Y-9702800D01*
X9293060Y-8534400D02*
X9293060Y-9702800D01*
X8928921Y-1701800D02*
X8525061Y-1701800D01*
X8525061Y-8051800D02*
X11446061Y-8051800D01*
X8525061Y-1701800D02*
X8525061Y-8051800D01*
D12*
%TO.C,R16*%
X20598814Y-13870000D02*
X20144686Y-13870000D01*
X20598814Y-15340000D02*
X20144686Y-15340000D01*
%TO.C,Q2*%
X30231500Y-9587000D02*
X29751500Y-9587000D01*
X29991500Y-9257000D01*
X30231500Y-9587000D01*
G36*
X30231500Y-9587000D02*
G01*
X29751500Y-9587000D01*
X29991500Y-9257000D01*
X30231500Y-9587000D01*
G37*
X28829000Y-6187000D02*
X29479000Y-6187000D01*
X28829000Y-6187000D02*
X28179000Y-6187000D01*
X28829000Y-9307000D02*
X29479000Y-9307000D01*
X28829000Y-9307000D02*
X28179000Y-9307000D01*
%TO.C,R10*%
X24242500Y-14270258D02*
X24242500Y-13795742D01*
X25287500Y-14270258D02*
X25287500Y-13795742D01*
%TO.C,C8*%
X22379000Y-13200748D02*
X22379000Y-13723252D01*
X23849000Y-13200748D02*
X23849000Y-13723252D01*
%TO.C,C6*%
X20528561Y-10173580D02*
X20528561Y-9892420D01*
X19508561Y-10173580D02*
X19508561Y-9892420D01*
D13*
%TO.C,U2*%
X22749061Y-8051800D02*
X22749061Y-1701800D01*
X22749061Y-1701800D02*
X22345201Y-1701800D01*
X21981062Y-8534400D02*
X21981062Y-9702800D01*
X21092062Y-8534400D02*
X21092062Y-9702800D01*
X19828061Y-9067800D02*
X19828061Y-8051800D01*
X19828061Y-8051800D02*
X22749061Y-8051800D01*
X18685061Y-9067800D02*
X19828061Y-9067800D01*
X18685061Y-8051800D02*
X18685061Y-9067800D01*
X17421060Y-8534400D02*
X17421060Y-9702800D01*
X16532060Y-8534400D02*
X16532060Y-9702800D01*
X16167921Y-1701800D02*
X15764061Y-1701800D01*
X15764061Y-8051800D02*
X18685061Y-8051800D01*
X15764061Y-1701800D02*
X15764061Y-8051800D01*
D12*
%TO.C,C9*%
X19004561Y-10173580D02*
X19004561Y-9892420D01*
X17984561Y-10173580D02*
X17984561Y-9892420D01*
%TO.C,C4*%
X11765561Y-10173580D02*
X11765561Y-9892420D01*
X10745561Y-10173580D02*
X10745561Y-9892420D01*
%TO.C,J5*%
X6558000Y-26182000D02*
X6558000Y-18562000D01*
X6558000Y-18562000D02*
X588000Y-18562000D01*
X5798000Y-25422000D02*
X5798000Y-22372000D01*
X5798000Y-19322000D02*
X5798000Y-22372000D01*
X2848000Y-26172000D02*
X2848000Y-25422000D01*
X2848000Y-25422000D02*
X5798000Y-25422000D01*
X2848000Y-19322000D02*
X5798000Y-19322000D01*
X2848000Y-18572000D02*
X2848000Y-19322000D01*
X1348000Y-26172000D02*
X1348000Y-24372000D01*
X1348000Y-24372000D02*
X598000Y-24372000D01*
X1348000Y-22872000D02*
X1348000Y-21872000D01*
X1348000Y-21872000D02*
X598000Y-21872000D01*
X1348000Y-20372000D02*
X1348000Y-18572000D01*
X1348000Y-18572000D02*
X598000Y-18572000D01*
X598000Y-26172000D02*
X1348000Y-26172000D01*
X598000Y-24372000D02*
X598000Y-26172000D01*
X598000Y-22872000D02*
X1348000Y-22872000D01*
X598000Y-21872000D02*
X598000Y-22872000D01*
X598000Y-20372000D02*
X1348000Y-20372000D01*
X598000Y-18572000D02*
X598000Y-20372000D01*
X588000Y-26182000D02*
X6558000Y-26182000D01*
X588000Y-18562000D02*
X588000Y-26182000D01*
X298000Y-26472000D02*
X1548000Y-26472000D01*
X298000Y-25222000D02*
X298000Y-26472000D01*
D14*
%TO.C,U1*%
X10384000Y-18415000D02*
X10384000Y-32385000D01*
X12289000Y-16510000D02*
X29434000Y-16510000D01*
X12289000Y-34290000D02*
X29434000Y-34290000D01*
D15*
X31339000Y-20905000D02*
X32349272Y-20908728D01*
D14*
X31339000Y-32385000D02*
X31339000Y-18415000D01*
D15*
X32349000Y-29904000D02*
X31339000Y-29904000D01*
X32849000Y-21408728D02*
X32849000Y-29404000D01*
D14*
X10384000Y-18415000D02*
G75*
G02*
X12289000Y-16510000I1905001J-1D01*
G01*
X12289000Y-34290000D02*
G75*
G02*
X10384000Y-32385000I1J1905001D01*
G01*
X29438000Y-16510000D02*
G75*
G02*
X31343000Y-18415000I0J-1905000D01*
G01*
X31339000Y-32385000D02*
G75*
G02*
X29434000Y-34290000I-1905050J50D01*
G01*
D15*
X32349272Y-20908728D02*
G75*
G02*
X32848972Y-21408728I-272J-499972D01*
G01*
X32849000Y-29404000D02*
G75*
G02*
X32349000Y-29904000I-500100J100D01*
G01*
D16*
X30458000Y-17574000D02*
G75*
G02*
X29954000Y-17574000I-252000J0D01*
G01*
X29954000Y-17574000D02*
G75*
G02*
X30458000Y-17574000I252000J0D01*
G01*
X31175000Y-16300000D02*
G75*
G02*
X30671000Y-16300000I-252000J0D01*
G01*
X30671000Y-16300000D02*
G75*
G02*
X31175000Y-16300000I252000J0D01*
G01*
D12*
%TO.C,R12*%
X8619258Y-32272500D02*
X8144742Y-32272500D01*
X8619258Y-31227500D02*
X8144742Y-31227500D01*
%TO.C,R3*%
X12693742Y-42928500D02*
X13168258Y-42928500D01*
X12693742Y-43973500D02*
X13168258Y-43973500D01*
%TO.C,J3*%
X10738800Y-44242000D02*
X10738800Y-50212000D01*
X10738800Y-50212000D02*
X20858800Y-50212000D01*
X10748800Y-47952000D02*
X11498800Y-47952000D01*
X10748800Y-49452000D02*
X10748800Y-50202000D01*
X10748800Y-50202000D02*
X12548800Y-50202000D01*
X11498800Y-45002000D02*
X15798800Y-45002000D01*
X11498800Y-47952000D02*
X11498800Y-45002000D01*
X12548800Y-49452000D02*
X10748800Y-49452000D01*
X12548800Y-50202000D02*
X12548800Y-49452000D01*
X14048800Y-49452000D02*
X14048800Y-50202000D01*
X14048800Y-50202000D02*
X17548800Y-50202000D01*
X17548800Y-49452000D02*
X14048800Y-49452000D01*
X17548800Y-50202000D02*
X17548800Y-49452000D01*
X19048800Y-49452000D02*
X19048800Y-50202000D01*
X19048800Y-50202000D02*
X20848800Y-50202000D01*
X19898800Y-50502000D02*
X21148800Y-50502000D01*
X20098800Y-45002000D02*
X15798800Y-45002000D01*
X20098800Y-47952000D02*
X20098800Y-45002000D01*
X20848800Y-47952000D02*
X20098800Y-47952000D01*
X20848800Y-49452000D02*
X19048800Y-49452000D01*
X20848800Y-50202000D02*
X20848800Y-49452000D01*
X20858800Y-44242000D02*
X10738800Y-44242000D01*
X20858800Y-50212000D02*
X20858800Y-44242000D01*
X21148800Y-50502000D02*
X21148800Y-49252000D01*
%TO.C,J4*%
X21203600Y-44276000D02*
X21203600Y-50246000D01*
X21203600Y-50246000D02*
X31323600Y-50246000D01*
X21213600Y-47986000D02*
X21963600Y-47986000D01*
X21213600Y-49486000D02*
X21213600Y-50236000D01*
X21213600Y-50236000D02*
X23013600Y-50236000D01*
X21963600Y-45036000D02*
X26263600Y-45036000D01*
X21963600Y-47986000D02*
X21963600Y-45036000D01*
X23013600Y-49486000D02*
X21213600Y-49486000D01*
X23013600Y-50236000D02*
X23013600Y-49486000D01*
X24513600Y-49486000D02*
X24513600Y-50236000D01*
X24513600Y-50236000D02*
X28013600Y-50236000D01*
X28013600Y-49486000D02*
X24513600Y-49486000D01*
X28013600Y-50236000D02*
X28013600Y-49486000D01*
X29513600Y-49486000D02*
X29513600Y-50236000D01*
X29513600Y-50236000D02*
X31313600Y-50236000D01*
X30363600Y-50536000D02*
X31613600Y-50536000D01*
X30563600Y-45036000D02*
X26263600Y-45036000D01*
X30563600Y-47986000D02*
X30563600Y-45036000D01*
X31313600Y-47986000D02*
X30563600Y-47986000D01*
X31313600Y-49486000D02*
X29513600Y-49486000D01*
X31313600Y-50236000D02*
X31313600Y-49486000D01*
X31323600Y-44276000D02*
X21203600Y-44276000D01*
X31323600Y-50246000D02*
X31323600Y-44276000D01*
X31613600Y-50536000D02*
X31613600Y-49286000D01*
%TO.C,R4*%
X15613742Y-42928500D02*
X16088258Y-42928500D01*
X15613742Y-43973500D02*
X16088258Y-43973500D01*
%TO.C,C1*%
X8475580Y-42935000D02*
X8194420Y-42935000D01*
X8475580Y-43955000D02*
X8194420Y-43955000D01*
%TO.C,J1*%
X354000Y-44259000D02*
X354000Y-50229000D01*
X354000Y-50229000D02*
X10474000Y-50229000D01*
X364000Y-47969000D02*
X1114000Y-47969000D01*
X364000Y-49469000D02*
X364000Y-50219000D01*
X364000Y-50219000D02*
X2164000Y-50219000D01*
X1114000Y-45019000D02*
X5414000Y-45019000D01*
X1114000Y-47969000D02*
X1114000Y-45019000D01*
X2164000Y-49469000D02*
X364000Y-49469000D01*
X2164000Y-50219000D02*
X2164000Y-49469000D01*
X3664000Y-49469000D02*
X3664000Y-50219000D01*
X3664000Y-50219000D02*
X7164000Y-50219000D01*
X7164000Y-49469000D02*
X3664000Y-49469000D01*
X7164000Y-50219000D02*
X7164000Y-49469000D01*
X8664000Y-49469000D02*
X8664000Y-50219000D01*
X8664000Y-50219000D02*
X10464000Y-50219000D01*
X9514000Y-50519000D02*
X10764000Y-50519000D01*
X9714000Y-45019000D02*
X5414000Y-45019000D01*
X9714000Y-47969000D02*
X9714000Y-45019000D01*
X10464000Y-47969000D02*
X9714000Y-47969000D01*
X10464000Y-49469000D02*
X8664000Y-49469000D01*
X10464000Y-50219000D02*
X10464000Y-49469000D01*
X10474000Y-44259000D02*
X354000Y-44259000D01*
X10474000Y-50229000D02*
X10474000Y-44259000D01*
X10764000Y-50519000D02*
X10764000Y-49269000D01*
%TO.C,R6*%
X26345742Y-42928500D02*
X26820258Y-42928500D01*
X26345742Y-43973500D02*
X26820258Y-43973500D01*
%TO.C,R14*%
X8144742Y-26528500D02*
X8619258Y-26528500D01*
X8144742Y-27573500D02*
X8619258Y-27573500D01*
%TO.C,Q3*%
X8382000Y-27777000D02*
X7732000Y-27777000D01*
X8382000Y-27777000D02*
X9032000Y-27777000D01*
X8382000Y-30897000D02*
X7732000Y-30897000D01*
X8382000Y-30897000D02*
X9032000Y-30897000D01*
X9784500Y-31177000D02*
X9304500Y-31177000D01*
X9544500Y-30847000D01*
X9784500Y-31177000D01*
G36*
X9784500Y-31177000D02*
G01*
X9304500Y-31177000D01*
X9544500Y-30847000D01*
X9784500Y-31177000D01*
G37*
%TO.C,J9*%
X15579400Y-36368000D02*
X15579400Y-42338000D01*
X15579400Y-42338000D02*
X23199400Y-42338000D01*
X15589400Y-40078000D02*
X16339400Y-40078000D01*
X15589400Y-41578000D02*
X15589400Y-42328000D01*
X15589400Y-42328000D02*
X17389400Y-42328000D01*
X16339400Y-37128000D02*
X19389400Y-37128000D01*
X16339400Y-40078000D02*
X16339400Y-37128000D01*
X17389400Y-41578000D02*
X15589400Y-41578000D01*
X17389400Y-42328000D02*
X17389400Y-41578000D01*
X18889400Y-41578000D02*
X18889400Y-42328000D01*
X18889400Y-42328000D02*
X19889400Y-42328000D01*
X19889400Y-41578000D02*
X18889400Y-41578000D01*
X19889400Y-42328000D02*
X19889400Y-41578000D01*
X21389400Y-41578000D02*
X21389400Y-42328000D01*
X21389400Y-42328000D02*
X23189400Y-42328000D01*
X22239400Y-42628000D02*
X23489400Y-42628000D01*
X22439400Y-37128000D02*
X19389400Y-37128000D01*
X22439400Y-40078000D02*
X22439400Y-37128000D01*
X23189400Y-40078000D02*
X22439400Y-40078000D01*
X23189400Y-41578000D02*
X21389400Y-41578000D01*
X23189400Y-42328000D02*
X23189400Y-41578000D01*
X23199400Y-36368000D02*
X15579400Y-36368000D01*
X23199400Y-42338000D02*
X23199400Y-36368000D01*
X23489400Y-42628000D02*
X23489400Y-41378000D01*
%TO.C,R13*%
X8144742Y-33796500D02*
X8619258Y-33796500D01*
X8144742Y-32751500D02*
X8619258Y-32751500D01*
%TO.C,R19*%
X12048258Y-35037500D02*
X11573742Y-35037500D01*
X12048258Y-36082500D02*
X11573742Y-36082500D01*
%TO.C,R17*%
X28026258Y-35037500D02*
X27551742Y-35037500D01*
X28026258Y-36082500D02*
X27551742Y-36082500D01*
%TO.C,R5*%
X23335342Y-42928500D02*
X23809858Y-42928500D01*
X23335342Y-43973500D02*
X23809858Y-43973500D01*
%TO.C,J10*%
X7451400Y-36368000D02*
X7451400Y-42338000D01*
X7451400Y-42338000D02*
X15071400Y-42338000D01*
X7461400Y-40078000D02*
X8211400Y-40078000D01*
X7461400Y-41578000D02*
X7461400Y-42328000D01*
X7461400Y-42328000D02*
X9261400Y-42328000D01*
X8211400Y-37128000D02*
X11261400Y-37128000D01*
X8211400Y-40078000D02*
X8211400Y-37128000D01*
X9261400Y-41578000D02*
X7461400Y-41578000D01*
X9261400Y-42328000D02*
X9261400Y-41578000D01*
X10761400Y-41578000D02*
X10761400Y-42328000D01*
X10761400Y-42328000D02*
X11761400Y-42328000D01*
X11761400Y-41578000D02*
X10761400Y-41578000D01*
X11761400Y-42328000D02*
X11761400Y-41578000D01*
X13261400Y-41578000D02*
X13261400Y-42328000D01*
X13261400Y-42328000D02*
X15061400Y-42328000D01*
X14111400Y-42628000D02*
X15361400Y-42628000D01*
X14311400Y-37128000D02*
X11261400Y-37128000D01*
X14311400Y-40078000D02*
X14311400Y-37128000D01*
X15061400Y-40078000D02*
X14311400Y-40078000D01*
X15061400Y-41578000D02*
X13261400Y-41578000D01*
X15061400Y-42328000D02*
X15061400Y-41578000D01*
X15071400Y-36368000D02*
X7451400Y-36368000D01*
X15071400Y-42338000D02*
X15071400Y-36368000D01*
X15361400Y-42628000D02*
X15361400Y-41378000D01*
%TO.C,R1*%
X2128742Y-42922500D02*
X2603258Y-42922500D01*
X2128742Y-43967500D02*
X2603258Y-43967500D01*
%TO.C,J8*%
X23667400Y-36368000D02*
X23667400Y-42338000D01*
X23667400Y-42338000D02*
X31287400Y-42338000D01*
X23677400Y-40078000D02*
X24427400Y-40078000D01*
X23677400Y-41578000D02*
X23677400Y-42328000D01*
X23677400Y-42328000D02*
X25477400Y-42328000D01*
X24427400Y-37128000D02*
X27477400Y-37128000D01*
X24427400Y-40078000D02*
X24427400Y-37128000D01*
X25477400Y-41578000D02*
X23677400Y-41578000D01*
X25477400Y-42328000D02*
X25477400Y-41578000D01*
X26977400Y-41578000D02*
X26977400Y-42328000D01*
X26977400Y-42328000D02*
X27977400Y-42328000D01*
X27977400Y-41578000D02*
X26977400Y-41578000D01*
X27977400Y-42328000D02*
X27977400Y-41578000D01*
X29477400Y-41578000D02*
X29477400Y-42328000D01*
X29477400Y-42328000D02*
X31277400Y-42328000D01*
X30327400Y-42628000D02*
X31577400Y-42628000D01*
X30527400Y-37128000D02*
X27477400Y-37128000D01*
X30527400Y-40078000D02*
X30527400Y-37128000D01*
X31277400Y-40078000D02*
X30527400Y-40078000D01*
X31277400Y-41578000D02*
X29477400Y-41578000D01*
X31277400Y-42328000D02*
X31277400Y-41578000D01*
X31287400Y-36368000D02*
X23667400Y-36368000D01*
X31287400Y-42338000D02*
X31287400Y-36368000D01*
X31577400Y-42628000D02*
X31577400Y-41378000D01*
%TO.C,R2*%
X5113742Y-42922500D02*
X5588258Y-42922500D01*
X5113742Y-43967500D02*
X5588258Y-43967500D01*
%TO.C,C3*%
X29718380Y-42941000D02*
X29437220Y-42941000D01*
X29718380Y-43961000D02*
X29437220Y-43961000D01*
%TO.C,C2*%
X18989580Y-42941000D02*
X18708420Y-42941000D01*
X18989580Y-43961000D02*
X18708420Y-43961000D01*
%TO.C,R18*%
X20557258Y-35037500D02*
X20082742Y-35037500D01*
X20557258Y-36082500D02*
X20082742Y-36082500D01*
%TD*%
D17*
%TO.C,*%
X3408000Y-39924000D03*
%TD*%
%TO.C,*%
X28408000Y-12424000D03*
%TD*%
%LPC*%
%TO.C,*%
X3408000Y-39924000D03*
%TD*%
D18*
%TO.C,Q1*%
X7396000Y-21712250D03*
X9271000Y-20762250D03*
X9271000Y-22662250D03*
%TD*%
D19*
%TO.C,R9*%
X9219500Y-24125250D03*
X7569500Y-24125250D03*
%TD*%
D20*
%TO.C,R8*%
X7508500Y-19426250D03*
X9158500Y-19426250D03*
%TD*%
%TO.C,R7*%
X7571500Y-25522250D03*
X9221500Y-25522250D03*
%TD*%
D17*
%TO.C,*%
X28408000Y-12424000D03*
%TD*%
D21*
%TO.C,J7*%
X3048000Y-34163000D03*
D22*
X3048000Y-31663000D03*
X3048000Y-29163000D03*
%TD*%
D23*
%TO.C,R11*%
X24765000Y-12064500D03*
X24765000Y-10414500D03*
%TD*%
D24*
%TO.C,D2*%
X26291500Y-7112000D03*
D25*
X24391500Y-7112000D03*
%TD*%
D26*
%TO.C,C10*%
X4500000Y-16131000D03*
X4500000Y-10031000D03*
%TD*%
D27*
%TO.C,C7*%
X26096000Y-8890000D03*
X24196000Y-8890000D03*
%TD*%
D28*
%TO.C,J2*%
X5695000Y-2650000D03*
D29*
X3195000Y-2650000D03*
%TD*%
D19*
%TO.C,R20*%
X5542750Y-7112000D03*
X3892750Y-7112000D03*
%TD*%
D18*
%TO.C,Q4*%
X9730500Y-13335000D03*
X11605500Y-12385000D03*
X11605500Y-14285000D03*
%TD*%
D30*
%TO.C,D3*%
X2711250Y-7112000D03*
X1136250Y-7112000D03*
%TD*%
D31*
%TO.C,C5*%
X12779561Y-9258000D03*
X12779561Y-10808000D03*
%TD*%
D24*
%TO.C,D1*%
X19055000Y-12573000D03*
D25*
X20955000Y-12573000D03*
%TD*%
D32*
%TO.C,R15*%
X16053750Y-14605000D03*
X17878750Y-14605000D03*
%TD*%
D28*
%TO.C,J6*%
X28750000Y-2523000D03*
D29*
X26250000Y-2523000D03*
%TD*%
D33*
%TO.C,U3*%
X14297562Y-10668000D03*
D34*
X12017561Y-3467100D03*
D33*
X9737560Y-10668000D03*
%TD*%
D32*
%TO.C,R16*%
X19459250Y-14605000D03*
X21284250Y-14605000D03*
%TD*%
D18*
%TO.C,Q2*%
X27891500Y-7747000D03*
X29766500Y-6797000D03*
X29766500Y-8697000D03*
%TD*%
D35*
%TO.C,R10*%
X24765000Y-13208000D03*
X24765000Y-14858000D03*
%TD*%
D36*
%TO.C,C8*%
X23114000Y-14412000D03*
X23114000Y-12512000D03*
%TD*%
D31*
%TO.C,C6*%
X20018561Y-9258000D03*
X20018561Y-10808000D03*
%TD*%
D33*
%TO.C,U2*%
X21536562Y-10668000D03*
D34*
X19256561Y-3467100D03*
D33*
X16976560Y-10668000D03*
%TD*%
D31*
%TO.C,C9*%
X18494561Y-9258000D03*
X18494561Y-10808000D03*
%TD*%
%TO.C,C4*%
X11255561Y-9258000D03*
X11255561Y-10808000D03*
%TD*%
D37*
%TO.C,J5*%
X3048000Y-21122000D03*
D38*
X3048000Y-23622000D03*
%TD*%
D39*
%TO.C,U1*%
X28418000Y-17145000D03*
X25878000Y-17145000D03*
X23338000Y-17145000D03*
X20798000Y-17145000D03*
X18258000Y-17145000D03*
X15718000Y-17145000D03*
X13178000Y-17145000D03*
D40*
X13178000Y-33655000D03*
X15718000Y-33655000D03*
X18258000Y-33655000D03*
X20798000Y-33655000D03*
X23338000Y-33655000D03*
X25878000Y-33655000D03*
X28418000Y-33655000D03*
D41*
X27148000Y-16745000D03*
X24608000Y-16745000D03*
X22068000Y-16745000D03*
X19528000Y-16745000D03*
X16988000Y-16745000D03*
X14448000Y-16745000D03*
D42*
X14448000Y-34055000D03*
X16988000Y-34055000D03*
X19528000Y-34055000D03*
D43*
X29434000Y-24130000D03*
X29434000Y-26670000D03*
X26894000Y-24130000D03*
X26894000Y-26670000D03*
X24354000Y-24130000D03*
X24354000Y-26670000D03*
X21814000Y-24130000D03*
X21814000Y-26670000D03*
D44*
X15280177Y-24406012D03*
X15280177Y-26406012D03*
D45*
X18923000Y-26525000D03*
%TD*%
D20*
%TO.C,R12*%
X9207000Y-31750000D03*
X7557000Y-31750000D03*
%TD*%
D19*
%TO.C,R3*%
X12106000Y-43451000D03*
X13756000Y-43451000D03*
%TD*%
D46*
%TO.C,J3*%
X18298800Y-47752000D03*
D47*
X15798800Y-47752000D03*
X13298800Y-47752000D03*
%TD*%
D46*
%TO.C,J4*%
X28763600Y-47786000D03*
D47*
X26263600Y-47786000D03*
X23763600Y-47786000D03*
%TD*%
D19*
%TO.C,R4*%
X15026000Y-43451000D03*
X16676000Y-43451000D03*
%TD*%
D48*
%TO.C,C1*%
X9110000Y-43445000D03*
X7560000Y-43445000D03*
%TD*%
D46*
%TO.C,J1*%
X7914000Y-47769000D03*
D47*
X5414000Y-47769000D03*
X2914000Y-47769000D03*
%TD*%
D19*
%TO.C,R6*%
X25758000Y-43451000D03*
X27408000Y-43451000D03*
%TD*%
%TO.C,R14*%
X7557000Y-27051000D03*
X9207000Y-27051000D03*
%TD*%
D18*
%TO.C,Q3*%
X9319500Y-30287000D03*
X9319500Y-28387000D03*
X7444500Y-29337000D03*
%TD*%
D49*
%TO.C,J9*%
X20639400Y-39878000D03*
D28*
X18139400Y-39878000D03*
%TD*%
D19*
%TO.C,R13*%
X7557000Y-33274000D03*
X9207000Y-33274000D03*
%TD*%
D20*
%TO.C,R19*%
X12636000Y-35560000D03*
X10986000Y-35560000D03*
%TD*%
%TO.C,R17*%
X28614000Y-35560000D03*
X26964000Y-35560000D03*
%TD*%
D19*
%TO.C,R5*%
X22747600Y-43451000D03*
X24397600Y-43451000D03*
%TD*%
D49*
%TO.C,J10*%
X12511400Y-39878000D03*
D28*
X10011400Y-39878000D03*
%TD*%
D19*
%TO.C,R1*%
X1541000Y-43445000D03*
X3191000Y-43445000D03*
%TD*%
D49*
%TO.C,J8*%
X28727400Y-39878000D03*
D28*
X26227400Y-39878000D03*
%TD*%
D19*
%TO.C,R2*%
X4526000Y-43445000D03*
X6176000Y-43445000D03*
%TD*%
D48*
%TO.C,C3*%
X30352800Y-43451000D03*
X28802800Y-43451000D03*
%TD*%
%TO.C,C2*%
X19624000Y-43451000D03*
X18074000Y-43451000D03*
%TD*%
D20*
%TO.C,R18*%
X21145000Y-35560000D03*
X19495000Y-35560000D03*
%TD*%
%LPD*%
M02*
